<?xml version="1.0" encoding="utf-8"?>
<!DOCTYPE svg PUBLIC "-//W3C//DTD SVG 20010904//EN" "http://www.w3.org/TR/2001/REC-SVG-20010904/DTD/svg10.dtd">
<svg version="1.0" xmlns="http://www.w3.org/2000/svg" width="649px" height="633px" viewBox="0 0 649 633" preserveAspectRatio="xMidYMid meet">
 <g fill="#685823">
  <path d="M320.5 632.2 c-0.2 -0.2 -5 -0.6 -10.7 -0.8 -13.5 -0.4 -22.4 -1.6 -39.1 -5.3 -7.5 -1.7 -14.8 -3.1 -16.2 -3.1 -1.4 0 -5.2 -1.1 -8.5 -2.5 -3.3 -1.4 -7 -2.5 -8.4 -2.5 -3.1 0 -32.3 -12.4 -35 -14.9 -1.2 -1 -4.5 -3.1 -7.5 -4.6 -13.2 -6.6 -31.9 -19.8 -44.6 -31.4 -7.1 -6.6 -16.8 -15.4 -21.5 -19.7 -8.1 -7.3 -12.9 -12.7 -29.3 -32.9 -6.9 -8.5 -18 -25.7 -25.6 -39.8 -1.8 -3.4 -5.5 -9.9 -8.2 -14.4 -6.4 -10.5 -11.3 -21.4 -12.9 -28.3 -1.6 -7.2 -9.6 -28.4 -12.7 -33.6 -2.6 -4.5 -11 -27.7 -12.2 -33.4 -0.6 -3.2 -1 -3.6 -4.6 -4.1 -5.9 -0.8 -8.4 -2.5 -10.4 -7.2 -1 -2.3 -3 -5.6 -4.5 -7.4 -1.4 -1.7 -3.8 -5.7 -5.3 -8.9 -2.2 -4.9 -2.7 -7.3 -2.7 -14.9 0 -11.5 2.5 -17.6 10.8 -25.5 9.7 -9.3 17 -19 19.5 -25.8 l2.2 -6.2 -2.6 -2.3 c-1.8 -1.5 -2.8 -3.6 -3.2 -6.4 -0.5 -4.1 -0.3 -4.5 5.5 -10.8 6.5 -6.9 8.1 -10.7 8.7 -20 0.3 -5.5 -0.6 -7.4 -4.3 -9.4 -3.4 -1.8 -6.2 -8.6 -6.2 -15.2 0 -4.6 0.6 -6.5 3.6 -11.5 5 -8.4 10 -13.2 17 -16.5 9.1 -4.2 16.4 -14.4 13.5 -19 -2.7 -4.4 0.6 -12 6.2 -14.4 4.5 -1.9 7.1 -4.9 11.8 -14 2.7 -5.2 3.8 -8.6 3.5 -10.1 -0.8 -3.2 2.6 -13.5 6.4 -19.4 6.7 -10.5 17.4 -16.8 29.3 -17.4 4.5 -0.2 6.3 -0.8 8.5 -2.8 1.5 -1.3 4.3 -3.5 6.2 -4.8 1.9 -1.3 6.3 -5.1 9.8 -8.4 4.5 -4.3 6.1 -6.4 5.6 -7.8 -0.4 -1.5 0 -1.8 2.9 -1.8 3.1 0 3.6 -0.4 5.1 -4.4 4.2 -11 17.1 -19.8 30.1 -20.4 5.2 -0.3 8.1 0 10.2 1.2 3 1.5 3.1 1.4 9.1 -2.8 7.1 -5 17.8 -10.1 24.2 -11.5 6.3 -1.4 33 -5.3 42.5 -6.2 4.4 -0.4 10.9 -1.2 14.5 -1.8 17.6 -2.8 22 -3.1 30.7 -2.1 15 1.7 20.2 1.4 25.8 -1.7 4.7 -2.6 5.7 -2.8 15.7 -2.6 9.4 0.2 11.4 0.5 17 3.1 4.3 1.9 7.7 4.4 10.3 7.5 2.9 3.4 5.9 5.4 11 7.5 22.6 9.5 26.7 11.5 44 20.7 17 9 38.1 23.9 57.3 40.4 6.8 5.8 16.3 13.8 21 17.7 4.8 3.9 10.7 9.3 13.1 12 2.4 2.7 8.7 9.4 14 14.9 9.5 9.8 20.7 25.6 28.6 40 2.2 3.9 5.5 9.5 7.5 12.5 7.4 11.1 24.3 53.6 30.5 76.6 0.2 0.6 3.7 3 7.9 5.3 8 4.4 10 6.5 11 11.9 0.3 1.8 1.7 4.8 3.1 6.7 1.5 1.8 3.9 6.4 5.5 10.2 4.9 11.3 3.9 25.5 -2.2 33.6 -1.8 2.3 -2.7 4.9 -3 9.2 -0.6 7.4 -3.4 13.5 -7 15.3 -2.2 1 -2.8 2.2 -3.4 6 -0.4 2.6 -1.1 5.8 -1.6 7.2 -0.5 1.4 -1.3 6.3 -1.8 10.8 -0.5 4.6 -1.6 9.4 -2.4 10.6 -2.1 3.3 -7.3 19.1 -8.5 26 -0.8 4.3 -4.5 12.5 -13.4 30 -6.8 13.3 -13.8 27.5 -15.6 31.6 -3.7 8.5 -3.3 7.7 -9.6 19.6 -7.6 14.5 -15.2 25.4 -23.4 33.9 -4.3 4.4 -10.5 11.4 -13.8 15.5 -13.9 17.2 -30.6 31.6 -45.2 39 -4.2 2.1 -10.1 5.7 -13.1 8 -6.6 5 -14.8 9 -25.3 12.4 -4.4 1.4 -13.1 5.1 -19.5 8.2 -15.6 7.5 -35 15.1 -44.2 17.4 -4.1 1 -11.7 3 -16.8 4.5 -6.5 1.9 -10.8 2.5 -14 2.2 -2.6 -0.2 -11.4 0.4 -19.7 1.4 -8.2 1 -16.2 2 -17.8 2.2 -1.5 0.2 -2.9 0.2 -3.2 -0.1z m20.5 -15.7 c10.7 -0.8 23.3 -2.4 28 -3.5 4.7 -1.1 10 -2 11.8 -2 2.7 0 12.4 -2.9 21.9 -6.6 1.4 -0.6 -2.6 -0.9 -10.7 -0.9 l-12.9 0 -0.3 3 c-0.5 4.7 -5.8 5.3 -29.6 2.9 l-6.3 -0.6 0.3 -4.2 0.3 -4.1 13.2 0 c10 0 12.9 -0.3 12.1 -1.2 -0.5 -0.6 -0.8 -2.7 -0.6 -4.5 l0.3 -3.3 18.6 -0.3 c21.6 -0.3 26.2 0.6 26.7 5.1 0.2 1.5 0.4 2.7 0.5 2.7 0.1 0 4.7 -1.8 10.2 -4 l10 -3.9 -7.6 0 c-7.3 -0.1 -17.1 -2.2 -19.7 -4.4 -0.8 -0.6 -1.2 -2.6 -1 -5.1 0.3 -3.8 0.5 -4.1 3.5 -4.4 1.8 -0.2 5.9 0.4 9 1.2 7.6 2.1 13.2 3.4 16.6 4.1 2.2 0.4 2.7 1.1 2.7 3.5 0 1.7 0.2 3 0.4 3 0.2 0 9.1 -4.2 19.8 -9.3 21.3 -10.3 47.9 -27 56.3 -35.3 10.1 -10 28.3 -31.1 32.7 -37.9 2.5 -3.8 7.1 -10.4 10.1 -14.5 10.5 -14.1 30.3 -55.9 35.7 -75.3 1.1 -3.8 3.7 -11.6 6 -17.2 2.2 -5.7 4.9 -14.3 6.1 -19.1 1.1 -4.8 3.8 -13.1 6 -18.5 4.1 -10.2 5.1 -16.9 2.4 -16.9 -1 0 -1.5 1 -1.5 2.9 0 2.1 -0.6 3.2 -2 3.6 -1.6 0.5 -2 1.5 -2 4.6 l0 3.9 -8.7 0 c-4.9 0 -11.3 -0.4 -14.4 -0.9 -3 -0.5 -13.4 -1.7 -23 -2.6 -22.1 -2.2 -22.2 -2.2 -21.7 -8 0.3 -3.8 0 -4.5 -1.7 -4.7 -1.6 -0.2 -2.1 -1.2 -2.3 -4.4 l-0.3 -4.2 -11.2 -0.8 c-6.2 -0.5 -11.9 -0.9 -12.7 -0.9 -1.1 0 -1.4 1.1 -1.1 4.6 0.1 2.6 -0.3 7.5 -1 11 -0.6 3.5 -1.3 11 -1.3 16.6 -0.2 9.3 -0.4 10.7 -3.4 16.4 -1.8 3.4 -3.2 6.8 -3.2 7.5 0 0.7 2.1 2.2 4.7 3.4 10.7 4.7 17.3 13.2 17.3 22.3 0 7.6 -3.2 11.7 -8.9 11.7 -1 0 -5.4 1.8 -9.8 4 -6.8 3.4 -9.2 5.3 -16.2 13.2 -4.5 5 -11.2 13.6 -14.8 19 -5.8 8.6 -7.4 10.2 -12 12.5 -5.8 2.8 -12.7 2.9 -16 0.2 -2.6 -2.2 -12.3 -17.7 -14.4 -23.3 -1.1 -2.8 -4.1 -8.4 -6.5 -12.3 -5.7 -9.2 -22.4 -47.8 -22.4 -51.9 0 -5.6 1 -6.1 17.5 -8.3 6.5 -0.9 7 -1.2 9 -6.9 3.1 -9 4.1 -40.3 1.3 -43.9 -1.6 -2 -18.6 -2.5 -45.3 -1.2 -29.9 1.5 -49.9 1.7 -67 0.7 -11.4 -0.6 -11.6 -0.6 -4.5 0.5 4.8 0.7 20.6 1.1 43.3 1 l35.7 -0.2 0 3.5 c0 4.1 -1.2 4.7 -11.5 6 l-7 0.9 7 0.5 7 0.5 0.3 4 0.3 4 -6.3 1.3 c-5.7 1.2 -54.3 4.4 -68 4.5 -7 0.1 -9 -1.3 -8.6 -6.2 0.4 -4.4 1.5 -4.8 18.3 -5.1 6.6 -0.1 16.7 -0.6 22.5 -1 l10.5 -0.7 -9 -0.2 c-19.6 -0.4 -34.3 -1.2 -41.5 -2.2 -4.3 -0.5 -14 -0.7 -22.7 -0.3 -16.9 0.8 -18.3 0.4 -18.3 -4.9 l0 -3 -7.7 0.8 c-4.3 0.4 -13.7 0.9 -20.9 1 -7.2 0.2 -14.4 0.6 -16 0.9 -1.6 0.4 -13.5 1.1 -26.4 1.6 -12.9 0.5 -27.1 1.4 -31.5 1.9 -4.4 0.6 -15 2 -23.5 3.1 -8.5 1.1 -18.2 2.7 -21.5 3.6 -3.3 0.9 -11.8 2.9 -19 4.4 -10.7 2.3 -12.2 2.8 -8.2 2.9 l4.7 0.1 0 3.9 c0 3.5 -0.3 4 -3.7 5.5 l-3.8 1.7 6.5 -0.6 c3.6 -0.3 9.9 -1 14 -1.5 4.1 -0.5 10.8 -0.9 14.8 -1 l7.2 0 0 3.3 c0 4.5 -2.1 5.4 -18.5 7.7 -16.1 2.4 -27.7 4.5 -37.7 7.1 -4.2 1 -10.6 1.9 -14.3 1.9 l-6.6 0 0.3 -5.2 c0.3 -5 0.5 -5.3 3.3 -5.8 2.5 -0.3 2.1 -0.5 -2 -1 l-5 -0.5 0 -4.8 0 -4.9 -3.4 0.6 c-1.9 0.3 -3.8 0.9 -4.2 1.3 -2.2 2.2 16.2 57.4 25.3 75.8 9.4 19.1 11.6 23.1 21.6 39 10.6 16.8 12.7 19.6 26.2 34.5 20.9 23 50.2 51.3 62.9 60.5 6.8 5 16.5 12.2 21.5 16 8.5 6.6 14.3 9.7 35.1 18.8 10.5 4.6 16 6.1 33.8 9.2 27.5 4.8 40.3 5.3 71.7 3z m118.2 -156.8 c2 -2.8 5.5 -7.8 7.8 -11.1 3.1 -4.1 3.7 -5.5 2.2 -4.7 -4.5 2.4 -19.3 0.8 -26.2 -2.9 -2.1 -1.1 -2.1 -1.1 -0.4 2.2 0.9 1.8 2.7 4.9 4 6.8 1.3 1.9 3 5.5 3.9 7.9 1.5 4.4 3.2 7.1 4.4 7.1 0.3 0 2.2 -2.4 4.3 -5.3z m30.4 -39.3 c2.3 -2.3 6.7 -5.4 9.9 -6.8 5.5 -2.7 5.6 -2.8 3.9 -4.7 -1 -1.1 -4.3 -2.7 -7.3 -3.5 -6.9 -2 -8.1 -2.9 -8.1 -6.1 0 -2.1 -0.4 -2.4 -2.2 -1.9 -3.6 1 -26.2 2 -29.1 1.2 -4.7 -1.1 -8.7 -5.4 -8.7 -9.2 0 -2.9 -0.3 -3.4 -2.4 -3.4 -1.8 0 -2.9 1 -4.6 4.3 -1.2 2.3 -2.7 4.5 -3.4 4.9 -2.1 1.4 -9.7 0.9 -11.3 -0.7 -0.8 -0.9 -1.7 -1.4 -1.9 -1.2 -0.5 0.5 5.1 17.4 7.6 22.9 l1.8 4.2 0.8 -4 c0.8 -4.7 2 -6.4 4.5 -6.4 1.3 0 1.9 -0.9 2.1 -3.7 0.3 -3.7 0.4 -3.8 4.7 -4.1 2.4 -0.2 4.7 0.1 5 0.6 0.7 1.2 14.1 -0.6 14.1 -1.9 0 -1.2 9.7 -1.1 12.1 0.1 3.1 1.7 5 6.7 5.6 14.4 0.6 8.1 -0.7 12.6 -3.5 12.6 -1.5 0 -1.8 0.5 -1.4 2.6 0.5 2.7 0.5 2.7 4 -1.7 2 -2.4 5.5 -6.3 7.8 -8.5z m-26.5 2.7 c3.4 -3.5 3.7 -6.1 0.8 -8.7 -1.8 -1.7 -2.3 -1.7 -4.6 -0.4 -1.4 0.8 -3.5 2.7 -4.6 4.2 -1.9 2.5 -1.9 2.8 -0.3 5.2 2.2 3.4 5.1 3.3 8.7 -0.3z m14 -46.3 c4.3 -2.4 8.6 -8.2 9.6 -12.8 1.2 -6.1 -5.1 -11 -14.2 -11 -3.7 0 -5.1 0.6 -8.3 3.5 -2.2 1.9 -5.2 5.3 -6.7 7.5 -2.5 3.6 -2.6 4.3 -1.5 6.9 1.2 3.1 4.5 6.5 7 7.4 3.6 1.3 10.4 0.6 14.1 -1.5z m-402.1 -10.8 c3.4 -0.8 3.4 -0.8 0.5 -0.8 -1.6 0 -5.2 0.6 -8 1.3 l-5 1.4 4.5 -0.5 c2.5 -0.3 6.1 -0.9 8 -1.4z m374.9 -14.9 c-1.4 -0.4 -1.6 -0.1 -2.4 3.4 l-0.7 3 2.1 -3 c1.2 -1.7 1.6 -3.1 1 -3.4z m-424.6 -9.1 c3.3 -3.8 6.7 -13 6.7 -17.9 0 -5 -3.3 -17.9 -6 -23.1 l-2.1 -4.1 -2.8 1.8 c-8.9 5.7 -14.1 13.9 -14.1 22.1 0.1 10.6 4.1 18.7 11.2 22.3 4.4 2.3 4.3 2.3 7.1 -1.1z m45.7 0.6 l4.5 -1.5 -7.7 0 c-4.2 -0.1 -7.8 -0.5 -8 -1 -0.1 -0.5 -1.5 -0.7 -3 -0.4 -2.2 0.4 -2.8 1.1 -2.8 3.1 0 2.5 0.1 2.5 6.3 1.9 3.4 -0.4 8.2 -1.3 10.7 -2.1z m396.5 -3.8 l0 -4.3 6.6 -0.3 c3.7 -0.2 9.6 0.4 13 1.2 3.5 0.8 6.6 1.2 6.9 1 0.2 -0.3 -0.2 -1.7 -1.1 -3.2 -1.8 -3.3 -4.4 -3.8 -25.4 -4.7 -18.5 -0.9 -20.5 -0.3 -20.5 5.5 l0 4.1 2.8 -2.1 c2.2 -1.7 4 -2.1 8.3 -1.8 l5.4 0.3 0 4.3 c0 3.5 0.3 4.2 2 4.2 1.7 0 2 -0.7 2 -4.2z m-99.7 2.5 c-1 -0.2 -2.6 -0.2 -3.5 0 -1 0.3 -0.2 0.5 1.7 0.5 1.9 0 2.7 -0.2 1.8 -0.5z m-267 -5.8 c4 -0.8 7.4 -1.5 7.5 -1.5 0.1 0 0.1 -2 -0.1 -4.5 -0.3 -3.8 0.1 -5 3.1 -8.7 4.6 -5.7 6.7 -10 6.7 -13.9 0 -3.1 0 -3.1 4.5 -2.7 l4.5 0.3 0 -4.7 c0 -4.3 -0.2 -4.7 -2.7 -5 -1.8 -0.2 -3.2 -1.4 -4.6 -3.8 -1 -1.9 -2.2 -3.8 -2.5 -4.2 -0.4 -0.4 -0.8 3.8 -0.9 9.2 -0.1 8.3 -0.5 10.8 -2.7 15.5 -4.6 10 -15.4 19.5 -22.2 19.5 -2.1 0 -2.4 0.5 -2.4 3.5 0 3.2 0.2 3.5 2.3 3 1.2 -0.3 5.5 -1.2 9.5 -2z m530.6 -1.4 c0.3 -0.5 -0.1 -1.1 -0.9 -1.5 -0.8 -0.3 -1.5 -1.2 -1.5 -2.1 0 -1.2 -1.7 -1.5 -9.7 -1.6 -11.7 -0.1 -14.7 -0.8 -15.1 -3.5 -0.2 -1.7 -1.5 -2.2 -8.3 -3.2 -5.5 -0.8 -9.6 -0.8 -13.2 -0.1 -3.5 0.6 -8.1 0.6 -13.3 -0.1 -24.4 -3 -43.9 -4.1 -51.9 -2.9 -4.4 0.7 -8.4 1.5 -8.8 1.9 -0.5 0.4 3.8 1 9.5 1.4 9.7 0.7 46.2 4.2 68.3 6.6 13.5 1.5 32.1 4 37 5 5.7 1.1 7.3 1.1 7.9 0.1z m-491.4 -5.6 l10.5 -1.4 -9.7 0.4 c-5.5 0.2 -11.1 1.1 -13 1.9 -2.5 1.1 -2.7 1.4 -0.8 1 1.4 -0.3 7.2 -1.1 13 -1.9z m-84.8 -1.6 c4.6 -3.7 6.8 -10.3 6.8 -19.9 0 -5.5 -0.6 -7.8 -3.1 -12.8 -1.7 -3.4 -3.5 -6.2 -3.9 -6.2 -1.7 0 -8 7 -11 12.3 -3.1 5.4 -3.5 8.6 -2.4 18.5 0.5 3.9 1.1 5.2 2.4 5.2 0.9 0 2.6 1.4 3.8 3 1.3 1.7 2.6 3 3 3 0.4 0 2.4 -1.4 4.4 -3.1z m147.8 -5 l2.5 -0.7 -2.8 -0.1 c-1.5 -0.1 -6 -1.7 -10 -3.7 l-7.2 -3.5 2.8 2.8 c1.5 1.6 2.7 3.9 2.7 5.2 0 2.1 0.3 2.2 4.7 1.5 2.6 -0.4 5.9 -1 7.3 -1.5z m23 -3.4 c0 -1.4 -0.2 -2.5 -0.6 -2.5 -0.3 0 -2.2 1.1 -4.2 2.5 l-3.7 2.5 4.3 0 c3.8 0 4.2 -0.2 4.2 -2.5z m-130 -3.1 c4.2 -3.8 9.5 -13.4 10.6 -19.1 0.4 -1.9 0.1 -5.2 -0.5 -7.4 -1 -3.2 -1.8 -4 -5 -5 -5.8 -1.7 -9.6 0.7 -13.1 8.4 -5.2 11.6 -5.4 13 -3 18.4 2.1 4.9 4.7 8.3 6.2 8.3 0.4 0 2.6 -1.6 4.8 -3.6z m188.4 3 c3.4 -1.3 1.3 -1.9 -5.4 -1.6 -3.8 0.2 -7 0.8 -7 1.3 0 1 9.9 1.2 12.4 0.3z m355.7 -6.9 c2.3 -4.9 2.4 -10 0.3 -16.2 -1.9 -5.7 -6.3 -13.7 -7.1 -12.9 -0.4 0.3 -1.2 3.6 -1.9 7.3 -1.1 6.1 -1.1 7.8 0.7 16.3 3 14.2 2.8 13.8 4.6 11.4 0.9 -1 2.4 -3.7 3.4 -5.9z m-152.1 4.7 c0 -1.7 -1.2 -2 -11.2 -2.6 -8.4 -0.5 -12.1 -1.2 -14.5 -2.6 l-3.3 -1.9 0 3.9 0 3.9 7.8 0.4 c20.6 0.9 21.2 0.8 21.2 -1.1z m-157.5 0.2 c1.4 -0.6 1 -1 -1.5 -2 -4.1 -1.8 -4 -1.8 -4 0.6 0 2.1 2.2 2.6 5.5 1.4z m-116.4 -7.2 c5.2 -3.4 11.7 -10.6 12.6 -14.1 0.8 -3.1 -1.2 -10.8 -3.6 -14.1 -2.4 -3.3 -12.2 -6.3 -17.5 -5.5 -5.8 0.9 -13.2 5.3 -18.2 10.8 l-4.4 4.9 2.3 3.9 c1.2 2.2 3.6 5.3 5.2 6.9 3.4 3.3 15.1 9.9 17.6 10 0.8 0 3.5 -1.3 6 -2.8z m-140.1 -4.2 c0 -3.3 -0.4 -6 -1 -6 -0.6 0 -1 2.7 -1 6 0 3.3 0.4 6 1 6 0.6 0 1 -2.7 1 -6z m286.2 1.7 c2.3 -1.8 5.3 -4.8 6.6 -6.7 2.1 -3.1 2.3 -4.3 1.8 -9.8 -1 -11.6 -10.5 -25 -17.9 -25.3 -10.4 -0.5 -15.1 1.1 -19 6.3 -4.5 6 -6.7 11.5 -6.7 16.8 0 9 4.1 13.7 16.7 19 9.1 3.9 13 3.9 18.5 -0.3z m-79.5 -1.7 c10.4 -6.3 8.8 -22.9 -2.7 -26.8 -5.6 -2 -14.1 3.2 -17.5 10.8 -1.7 3.7 -1.7 4 0.3 7.2 2.5 4 5.7 7 9.7 9.1 4 2.1 6.4 2.1 10.2 -0.3z m333.1 -5.6 c0.2 -5.6 -0.2 -7.6 -2 -10.8 -3 -5.2 -4.4 -5.5 -5.8 -1.1 -1.4 4.3 -0.1 11 3.2 16.3 3 4.8 4.3 3.6 4.6 -4.4z m-124.9 3.1 c4.8 -2.4 9.1 -9.2 9.1 -14.2 0 -8.4 -4.4 -12.9 -15.5 -15.8 -8.3 -2.1 -13.2 -1.9 -19.3 1 -4 1.9 -5.6 3.3 -6.7 5.9 -3.6 8.6 -0.1 15.1 11.5 21.1 7.3 3.7 16 4.6 20.9 2z m-341.3 -1.6 c3.5 -2.1 4.2 -4.5 2.4 -8 -1.6 -2.9 -7.4 -2.6 -10.5 0.6 -3.2 3.1 -3.1 4.8 0.1 7.4 3.3 2.6 3.9 2.6 8 0z m301.2 0.4 c-4.2 -4.9 -6 -15.8 -3.8 -23.2 1.2 -4.4 0.6 -5 -2.3 -2.3 -2.6 2.4 -8.5 3 -10.5 1 -0.9 -0.9 -1.2 0.1 -1.2 4.5 l0 5.7 5 0 5 0 0 3.7 c0 3 0.8 4.5 4.2 8 4.2 4.3 6.5 5.9 3.6 2.6z m-286.6 -6 l-1 -4.8 -0.1 6 c-0.1 4.3 0.2 5.6 1 4.8 0.8 -0.8 0.9 -2.5 0.1 -6z m394.8 4.8 c0 -0.5 -2 -1.1 -4.5 -1.3 -2.5 -0.2 -4.5 0 -4.5 0.4 0 0.4 1.9 0.9 4.3 1.1 2.3 0.2 4.3 0.4 4.5 0.5 0.1 0.1 0.2 -0.2 0.2 -0.7z m19.3 -7.1 c4.3 -6.2 4.5 -8.3 1.5 -14.4 -1.9 -4 -2.4 -4.4 -4.2 -3.4 -5.9 3 -6.6 4.5 -6.6 14.8 0 5.3 0.3 10 0.7 10.3 1.1 1.2 4.7 -1.8 8.6 -7.3z m-39.9 3.5 c2.3 -3.4 2 -6.5 -0.9 -10.8 -3 -4.3 -3.4 -4.4 -6.8 -1.7 -4.7 3.7 -4.4 7.3 1 13.2 2.8 3 4.4 2.8 6.7 -0.7z m-222.2 -5.4 c-0.5 -8.1 1.1 -16 4.5 -21.3 2.6 -4.3 2.5 -4.3 -2.1 -2.4 -3.7 1.5 -7.3 6.1 -9.2 11.4 -1.1 3.3 -1 3.7 0.9 4.7 1.3 0.6 2.7 3.3 4 7.8 1.1 3.7 2.1 6.7 2.2 6.7 0.1 0 0 -3.1 -0.3 -6.9z m-66 0.4 c0.3 -4.4 0.3 -4.4 -3.2 -4.7 -2.7 -0.2 -4.1 -1.2 -6.8 -4.7 l-3.4 -4.5 0.8 4 c0.3 2.1 1.1 4.7 1.5 5.6 0.5 0.9 0.9 3.4 0.9 5.5 l0 3.8 4.9 -0.3 4.9 -0.4 0.4 -4.3z m347.8 -1.4 c0 -5.7 -0.1 -5.8 -2.5 -5.3 -2.1 0.4 -2.5 1 -2.5 3.9 0 1.9 -0.5 4.3 -1 5.4 -1 1.7 -0.7 1.9 2.5 1.9 l3.5 0 0 -5.9z m-183.3 2.4 c3.3 -0.9 7.3 -6.2 7.3 -9.5 0 -3.8 -2.8 -5.3 -9.6 -5.3 -8.7 0 -14.9 4.8 -12.6 9.8 1.3 2.8 8.6 6.7 11.2 6 0.8 -0.2 2.5 -0.6 3.7 -1z m101.3 -1.7 c0 -1.8 0.3 -5 0.6 -7 0.7 -3.8 0.6 -3.8 -2.8 -3.8 l-3.5 0 0.1 7 c0.1 6.9 0.1 7 2.9 7 2.4 0 2.7 -0.4 2.7 -3.2z m-214 -6.4 c0 -0.2 -0.7 -0.4 -1.5 -0.4 -1.1 0 -1.5 1.1 -1.5 3.8 l0.1 3.7 1.4 -3.4 c0.8 -1.8 1.5 -3.5 1.5 -3.7z m324.4 -12.3 c-0.5 -0.6 -3.4 2 -4.5 4.1 -0.7 1.2 -0.6 2.5 0.2 4 1.2 2.2 1.3 2 2.9 -2.7 1 -2.8 1.6 -5.2 1.4 -5.4z m-566.4 -3.5 c4.7 -0.8 17.9 -3.3 29.5 -5.6 29.6 -5.8 64.5 -11.4 87.5 -14 4.7 -0.5 11.9 -1.5 16 -2.1 7.4 -1.1 76.6 -2.5 117.3 -2.3 l20.7 0.2 0 -3.8 c0 -4.2 -0.2 -4.1 11.7 -5.6 5.1 -0.6 5.2 -0.7 5.5 -4.3 0.3 -3.1 0.7 -3.6 3 -3.9 2.2 -0.3 2.7 -0.9 3 -3.5 0.3 -3.2 0.4 -3.2 6.3 -3.5 8.6 -0.5 10.5 0.2 10.5 3.8 0 2.6 0.4 3 2.6 3 4.4 0 6.4 1.7 6.4 5.5 0 1.8 -0.6 3.6 -1.2 3.8 -0.7 0.3 1 0.3 3.7 -0.1 2.8 -0.4 7.3 -0.7 10 -0.7 l5 0 0 4.3 0 4.2 13 0 c7.2 0 14 -0.3 15.1 -0.6 2.4 -0.6 2.6 1 -2.4 -18.6 -1.7 -6.5 -3.3 -14.3 -3.7 -17.5 -1.5 -13.6 -5.8 -31.3 -11.5 -47.8 -1.1 -3.3 -2.7 -8.9 -3.6 -12.5 -1.9 -8.6 -5.2 -17.2 -13.9 -36.5 -4 -8.8 -8.7 -19.6 -10.5 -23.9 -6.4 -15.2 -20.7 -33.9 -37.6 -48.8 -13 -11.5 -22.8 -15.7 -45.4 -19.7 -7.2 -1.3 -11.1 -0.9 -35 3.3 -19.9 3.5 -27.9 6.4 -41 15.1 l-5.5 3.6 5.5 -0.5 c3 -0.3 7.9 -0.3 10.8 0.1 l5.3 0.6 -0.3 3.6 c-0.3 3.1 -0.7 3.6 -3 3.9 -3.8 0.4 -3.5 2.2 0.3 2.2 4.8 0 6.9 1.6 6.9 5.4 0 3.2 -0.2 3.4 -4.6 4 -2.6 0.3 -9.2 0.6 -14.8 0.6 -5.6 0 -13.7 0.7 -18.1 1.6 -10.7 2 -23.3 2.4 -24.4 0.6 -0.7 -1.1 -2.3 -0.5 -7.5 2.8 -6.3 4 -8.5 6 -4.8 4.5 0.9 -0.4 8 -1.2 15.7 -1.6 45.1 -2.7 44.5 -2.7 44.5 2.6 0 1.9 -0.3 3.5 -0.7 3.6 -0.5 0 -4.4 0.4 -8.8 1 -4.4 0.5 -14.7 1.4 -23 1.9 -8.2 0.5 -17 1.5 -19.5 2.4 l-4.5 1.5 11.8 0 11.7 0.1 0 3.9 c0 4.4 -0.2 4.5 -13.5 5.7 -3.8 0.3 -10.4 1.5 -14.7 2.5 -8.6 2.1 -12.5 2.4 -16.2 0.9 -2.2 -0.8 -2.6 -1.6 -2.6 -5 0 -3.9 0.1 -4 3.4 -4 1.8 0 5 -0.7 6.9 -1.5 2 -0.8 5.8 -1.6 8.4 -1.6 l4.8 -0.1 -5.2 -1 c-5 -0.9 -5.2 -1.1 -5.5 -4.4 l-0.3 -3.4 -15.3 14.2 c-14.1 13.2 -25.2 24.9 -25.2 26.7 0 1.5 17.5 -0.2 24.4 -2.4 l7.1 -2.3 -7.5 -0.1 c-4.5 -0.1 -8.1 -0.6 -8.8 -1.3 -1.6 -1.6 -1.5 -7.3 0.1 -8.5 0.6 -0.5 6.8 -1.5 13.7 -2.2 6.9 -0.6 15.4 -1.7 18.9 -2.3 6.8 -1.2 29.4 -0.5 34.6 1 2.5 0.7 3 1.4 3.3 4.4 l0.3 3.6 -7.3 0.6 c-4 0.3 -13.1 0.8 -20.3 1.1 -20.4 0.9 -23.5 2 -8 2.8 17.2 0.8 18.9 1.3 19.3 5.9 l0.3 3.5 -13.8 0.6 c-13 0.6 -23.4 2.4 -36.3 6.1 -3.5 1.1 -8.4 1.5 -13.5 1.4 l-8 -0.3 -0.5 -3.4 -0.5 -3.4 -2.9 4.1 c-1.6 2.3 -3.3 4.2 -3.7 4.2 -0.5 0 -0.9 0.4 -0.9 1 0 0.5 -2.2 4.2 -4.9 8.2 -5.9 8.7 -16.5 27.7 -22.7 40.5 -4.8 10 -5 10.8 -3.2 9.7 0.7 -0.4 2.8 -1 4.8 -1.4 3.3 -0.5 3.5 -0.8 3.8 -4.7 0.3 -4.1 0.5 -4.3 5.5 -6.1 5 -1.9 17.1 -4.8 23.2 -5.5 1.7 -0.2 -1.9 -0.5 -8 -0.6 -6 -0.1 -11.6 -0.5 -12.3 -1 -0.9 -0.5 -1.2 -2.4 -1 -5.2 0.3 -3.8 0.6 -4.4 2.8 -4.7 2.3 -0.3 2.5 -0.6 2.2 -4.7 -0.5 -5.1 -0.3 -5.3 12.3 -8.5 6.9 -1.7 6.9 -1.8 3 -2.1 -4 -0.4 -4 -0.4 -4.3 -5 -0.3 -4.3 -0.1 -4.7 2.5 -5.7 4.5 -1.7 26 -5.1 35.9 -5.6 5 -0.3 12.8 -0.3 17.3 0.1 l8.1 0.6 0 3.3 c0 1.8 -0.4 3.5 -0.9 3.8 -0.5 0.4 -7.6 1.3 -15.8 2.1 -14.6 1.5 -30.3 3.9 -35.9 5.4 -1.6 0.4 4.9 0.5 14.4 0.3 l17.2 -0.5 0 4.1 c0 4.6 0.5 4.4 -16.5 6.2 -12 1.3 -21.6 3.4 -25.3 5.6 -2.7 1.5 -2.7 1.5 1.8 1 13 -1.4 28 -1.8 28 -0.7 0 0.6 0.7 1.1 1.5 1.1 1 0 1.5 1.1 1.5 3.5 l0 3.5 -5.2 0.1 c-2.9 0 -8.4 0.6 -12.3 1.4 l-7 1.4 8 -0.5 c4.4 -0.3 10.7 -0.6 14 -0.7 l6 -0.2 0.3 3.8 c0.3 3.6 0.1 3.8 -4 5.6 -2.4 1.1 -7 2.2 -10.3 2.6 -3.3 0.3 -9.8 1.1 -14.5 1.8 l-8.5 1.2 12.5 0.5 12.5 0.5 0.3 3.7 c0.4 4.5 0.6 4.4 -15.8 5.7 l-11.5 0.8 8.8 0.2 8.7 0.1 0 4.4 0 4.4 -6.2 1.1 c-3.5 0.6 -8.5 1.4 -11.3 1.7 -6.1 0.8 -21.4 5 -27.3 7.5 -4.8 2.1 -13.2 2.5 -14.9 0.8 -1.2 -1.2 -6.5 10.5 -8.9 19.6 -1.9 7 -1.8 7.8 0.6 6.5 1.5 -0.8 2 -2.1 2 -5.1 0 -3.6 0.3 -4.1 3.4 -5.4 2.6 -1.1 3.5 -2.2 3.8 -4.2 0.3 -2.4 1.5 -3.4 7.8 -6.5 7 -3.5 8.1 -3.8 16.4 -3.8 6.6 0 9.2 -0.4 10 -1.5 1.2 -1.6 14.6 -4.1 17 -3.2 1 0.4 1.6 1.9 1.6 4.1 0 3.2 -0.3 3.6 -3.7 4.5 -2.1 0.6 -5.8 1.3 -8.3 1.7 -6.5 1 -8.5 2.3 -3.5 2.4 2.2 0 6.4 0.3 9.3 0.7 l5.3 0.6 -0.3 4.1 -0.3 4.1 -10 0.3 c-11.7 0.3 -15.6 2.1 -4.9 2.3 10.3 0.1 11.8 0.8 12.2 5.1 0.3 3.3 0.1 3.7 -2.5 4 -2.1 0.3 -1.5 0.6 2.7 1.4 l5.5 0.9 0 4 c0 4 0 4 -4 4.2 -11.7 0.7 -32.9 3.8 -40.4 6 -14.8 4.1 -16.5 4.4 -21.4 4.1 -3.8 -0.2 -4.7 0 -4.7 1.4 0 0.9 -0.3 2.3 -0.6 3.2 -0.7 1.9 -1 1.9 9.6 0.2z m137.5 -1.1 c2.2 -0.8 7.7 -1.4 12.3 -1.5 l8.2 0 0 -4 0 -4 -7.8 0 c-7.1 0 -12.2 0.6 -41.7 4.5 l-10 1.4 12 -0.7 c6.6 -0.4 14.3 -0.7 17 -0.7 4.9 0 5 0.1 5.3 3.3 0.2 1.7 0.4 3.2 0.5 3.2 0.1 0 2 -0.7 4.2 -1.5z m382.5 -6.1 c0 -0.8 -0.6 -1.4 -1.2 -1.4 -0.7 0 -2.3 -0.3 -3.5 -0.6 -1.9 -0.5 -2.3 -0.2 -2.3 1.8 0 2.2 0.4 2.4 3.5 2 2.1 -0.3 3.5 -1 3.5 -1.8z m-93 -2.9 c0 -2.4 0.5 -3.5 1.8 -3.8 0.9 -0.3 -1.4 -0.5 -5.3 -0.6 -3.8 -0.1 -9.3 -0.4 -12.1 -0.7 l-5.2 -0.7 -0.3 4.4 -0.4 4.4 10.8 0.1 10.7 0.2 0 -3.3z m-153.2 -1.5 c2.5 -0.8 2.4 -0.8 -1 -0.9 -2.8 -0.1 -3.8 0.3 -3.8 1.5 0 0.8 0.5 1.2 1.1 0.9 0.6 -0.4 2.3 -1.1 3.7 -1.5z m217.2 -1.6 c-4.1 -0.7 -12.7 -1.2 -19 -1.2 l-11.5 0.1 11.4 0.8 c6.3 0.5 12.2 1 13 1.2 0.9 0.3 4.3 0.5 7.6 0.5 l6 -0.1 -7.5 -1.3z m-205.5 -1.5 c1.1 -0.4 4 -1 6.5 -1.2 2.5 -0.2 -0.7 -0.4 -7 -0.4 -6.3 0 -10.7 0.1 -9.7 0.4 0.9 0.2 1.7 1.1 1.7 1.8 0 1.5 4.5 1.2 8.5 -0.6z m40.3 -2.6 c-1 -0.2 -2.6 -0.2 -3.5 0 -1 0.3 -0.2 0.5 1.7 0.5 1.9 0 2.7 -0.2 1.8 -0.5z m-329.6 -1 c0.2 -0.5 0.1 -2.8 -0.2 -5.3 l-0.5 -4.5 -1.1 5.3 c-0.9 4.1 -0.9 5.2 0.2 5.2 0.7 0 1.4 -0.3 1.6 -0.7z m284.3 -2.2 c-1.8 -0.7 -5.5 -0.4 -5.5 0.5 0 0.2 1.7 0.4 3.8 0.3 2.8 0 3.2 -0.2 1.7 -0.8z m193.5 -7.6 l0 -3.5 7 0 c6.7 0 7 -0.1 7 -2.4 0 -1.3 0.6 -2.7 1.3 -2.9 1.4 -0.6 -0.5 -0.8 -9.3 -1 l-6.5 -0.2 -0.3 -3.9 c-0.4 -4.6 0.7 -5.6 6.1 -5.6 3.5 0 3.7 -0.2 3.7 -3 0 -2.3 0.6 -3.3 2.3 -3.9 2.4 -1 1.8 -1.4 -3.6 -2.6 -2.5 -0.5 -2.8 -0.9 -2.5 -4.3 l0.3 -3.7 10.5 0.1 c8.7 0.1 9.8 0 6.2 -0.8 -4.2 -0.9 -4.3 -1 -4 -4.6 0.3 -3.3 0 -3.8 -2.7 -4.8 -2.5 -0.9 -3.1 -1.7 -3.3 -4.7 -0.3 -3.6 -0.3 -3.7 3.5 -3.8 3.2 -0.2 3.4 -0.3 0.8 -0.6 -9.7 -1.1 -9.5 -1 -9.5 -5.8 l0 -4.5 4.8 -0.1 c4.4 -0.1 4.5 -0.1 1.9 -1.1 -2.6 -0.9 -2.9 -1.4 -2.5 -5.3 l0.3 -4.2 -7.5 -1.3 c-10.3 -1.7 -11.3 -2.3 -10.8 -7 0.3 -3.3 0 -3.9 -2.4 -4.8 -1.8 -0.6 -2.8 -1.8 -2.8 -3 0 -1.6 -1 -2.2 -4.7 -2.8 -4.8 -0.9 -4.8 -0.9 -5.1 -5.2 -0.2 -2.5 0.1 -4.2 0.7 -4.2 0.6 0 1.1 -1.8 1.1 -3.9 0 -3.9 -0.1 -4 -3.7 -4.3 -3.8 -0.3 -3.8 -0.3 -3.9 -4.8 0 -3.4 -0.5 -4.6 -1.7 -4.8 -1.1 -0.2 -1.7 -1.3 -1.7 -3.2 0 -2.4 -0.5 -2.9 -2.7 -3.2 -2.4 -0.3 -2.8 -0.8 -3.1 -4 -0.3 -3.4 -0.6 -3.8 -3.2 -3.8 -1.6 0 -4 -0.4 -5.4 -1 -2.2 -0.8 -2.6 -1.6 -2.6 -5 l0 -4 6.3 0 c5.1 -0.1 5.8 -0.3 4.3 -1.2 -1.1 -0.6 -5 -1 -8.6 -0.9 -9.2 0.3 -12 -1.1 -12 -6.1 0 -3.6 0.2 -3.8 3.1 -3.8 2.8 0 3 -0.2 1.8 -1.6 -1.5 -1.8 -20.1 -16.4 -27.3 -21.5 -12.8 -8.9 -15.6 -10.7 -15.6 -10.1 0 0.4 1.6 2 3.6 3.6 4.6 3.6 9.4 11.2 9.4 14.7 0 1.8 2 5.3 5.6 10.1 6.7 8.7 22.1 39.7 25.7 51.4 1.7 5.7 3.7 9.8 6.7 13.5 6.1 7.6 7 10.5 7 21.1 0 6.4 0.6 11.2 2 15.5 2.1 6.7 6.3 26.6 10.5 49.8 1.4 7.6 2.9 14.2 3.3 14.6 0.8 0.9 6.3 1.5 15.5 1.7 l6.7 0.2 0 -3.5z m-39 -2.5 c0 -2.7 -0.4 -5 -1 -5 -0.5 0 -1 0.7 -1 1.5 0 0.8 -1.4 3 -3.1 5 l-3.1 3.5 4.1 0 4.1 0 0 -5z m-38.7 2.4 c-9.9 -4.9 -12.7 -30.1 -4 -35.4 3.8 -2.4 11.7 -2.8 11.7 -0.6 0 0.9 0.7 1.2 2 0.9 1.3 -0.3 2 -1.4 2 -2.9 0 -2.3 0.3 -2.4 6.3 -2.4 4.3 0 7.4 0.6 10 2 2 1.1 3.9 2 4.1 2 0.4 0 -1.1 -8.4 -2 -11.3 -0.5 -1.7 -0.7 -1.7 -3.1 -0.1 -5.8 3.7 -22.9 2.7 -35.3 -2.1 -4.9 -1.9 -7.6 -3.7 -11.1 -7.6 l-4.5 -5 3.8 14.8 c4.4 17.1 7.8 35.6 7.8 42.9 0 2.8 0.3 5.4 0.7 5.7 0.3 0.4 3.8 0.7 7.7 0.7 l7.1 0 -3.2 -1.6z m16.7 -0.4 c0 -1.1 -0.4 -2 -1 -2 -0.5 0 -1 0.9 -1 2 0 1.1 0.5 2 1 2 0.6 0 1 -0.9 1 -2z m3.9 -13.6 c2.8 -3.6 2.6 -5 -0.8 -8.5 -3.4 -3.4 -6.1 -3.7 -8.5 -1 -1.5 1.7 -1.6 2.2 -0.3 5.4 1.3 3.1 5 6.7 6.8 6.7 0.4 0 1.7 -1.2 2.8 -2.6z m-425.2 -27.7 c2.4 -3.8 6.3 -14.7 6.3 -17.9 0 -4.6 -7.3 1 -13.8 10.7 -4.6 6.8 -5.3 8.4 -4.8 11.3 0.3 1.8 1 4 1.7 4.8 1 1.3 1.7 1 4.7 -1.8 1.9 -1.8 4.5 -5 5.9 -7.1z m24.8 -0.8 c0.5 -0.6 0.4 -0.9 -0.3 -0.9 -0.7 0 -1.2 -1.2 -1.2 -2.7 l-0.1 -2.8 -1.9 3.5 c-1.1 1.9 -1.9 3.9 -2 4.3 0 1 4.1 -0.1 5.5 -1.4z m498.7 -9.5 c-3.1 -6.3 -3.8 -7.2 -4 -5 -0.2 1.9 -0.9 2.6 -2.5 2.7 -1.7 0.1 -1.4 0.3 1.1 1.1 2.7 0.9 3.2 1.5 3.2 4.4 0 3.2 0.1 3.3 5.2 4.3 0.4 0 -0.9 -3.3 -3 -7.5z m-140.5 -18.4 c2 0 2.4 -0.3 1.7 -1.7 -0.5 -1 -1 -5.5 -1.2 -10 l-0.3 -8.3 -3.5 0 -3.4 0 0.1 -5.2 c0.1 -7.2 0.6 -8.2 6.8 -12.8 l5.3 -4 -4 0 c-2.8 0 -5.4 -0.9 -8.8 -3.3 l-4.9 -3.2 0.3 -8.5 c0.3 -10.1 1.4 -13.9 4.8 -17.1 2.1 -2 3.7 -2.4 11.9 -2.7 5.2 -0.3 9.5 -0.7 9.5 -1.1 0 -0.3 -0.7 -1.4 -1.4 -2.4 -1.3 -1.7 -1.7 -1.7 -6.7 -0.3 -8.3 2.5 -25 2 -34.7 -0.9 l-2.3 -0.8 3 7.9 c1.6 4.4 4.1 10.7 5.6 14.1 1.4 3.5 3.3 9.3 4.2 13 0.8 3.8 2.1 8.2 2.8 9.8 0.7 1.7 1.5 6.1 1.8 9.8 0.4 3.9 1.7 9.2 3.2 12.5 2.1 5 3.5 9.3 6.3 20.2 0.6 2.2 0.7 2 1 -1.2 0.3 -3.3 0.6 -3.8 2.9 -3.8z m39.6 5.9 c3.4 -1.5 4.8 -4.4 4.9 -9.8 0 -5.8 -2.1 -10.1 -6.5 -13.5 -5.1 -3.9 -10.1 -5.6 -16.6 -5.6 -4.9 0 -6.5 0.4 -9 2.6 -3.5 2.9 -4 6.1 -1.7 11.5 1.5 3.5 5.6 7.9 9.2 9.7 1.6 0.9 16 6 17.1 6.2 0.1 0 1.3 -0.5 2.6 -1.1z m72.7 -32.8 c0 -0.5 -0.7 -1.4 -1.5 -2.1 -1.3 -1 -1.5 -0.9 -1.5 0.9 0 1.2 0.6 2.1 1.5 2.1 0.8 0 1.5 -0.4 1.5 -0.9z m-82 -15.5 c0 -0.2 -0.6 -1.7 -1.3 -3.4 l-1.3 -3.1 -2.7 3.4 -2.8 3.5 4.1 0 c2.2 0 4 -0.2 4 -0.4z m68.4 -1.8 c-1 -1.3 -2 -2.5 -2.1 -2.7 -0.2 -0.2 -0.3 0.5 -0.3 1.7 0 1.1 0.8 2.3 1.8 2.5 0.9 0.3 1.9 0.5 2.1 0.6 0.2 0 -0.4 -0.9 -1.5 -2.1z m-10.5 -11.4 l-3.4 -3.5 -0.3 2.8 c-0.2 1.5 -0.9 3.1 -1.5 3.5 -0.7 0.4 1 0.8 3.7 0.8 l5 0 -3.5 -3.6z m-421.2 -5.3 c2.7 -2.1 6.6 -5.8 8.7 -8.2 3.7 -4.3 9.1 -13.7 8.4 -14.5 -0.6 -0.5 -7.6 3.4 -11.4 6.3 -1.8 1.3 -4.4 4.1 -5.8 6.2 -3.2 4.5 -7 14.1 -5.7 14.1 0.5 0 3.1 -1.7 5.8 -3.9z m346 0.2 c0.6 -1.6 -5.3 -7.3 -7.5 -7.3 -1.1 0 -3 0.9 -4.3 1.9 -3 2.5 -1.9 3.8 4.7 5.6 5.4 1.4 6.6 1.4 7.1 -0.2z m-50.1 -38.4 c-3.2 -2.5 -3.8 -2.4 -2.5 0.5 0.8 1.6 1.7 2.2 3 1.9 1.7 -0.5 1.7 -0.7 -0.5 -2.4z m40.3 0 c1.7 -0.6 3.1 -1.6 3.1 -2.1 0 -2.2 -15.1 -15.4 -19.4 -17 -3.9 -1.5 -4.9 -1.5 -11.6 0.1 -5.1 1.1 -7.7 2.3 -8.7 3.7 -1.3 2 -1.1 2.4 2.4 5.1 4.8 3.8 9.1 6 17.3 8.9 7.3 2.5 12.2 2.9 16.9 1.3z m-46.9 -14.7 c0 -8.1 -1.2 -10.1 -6.5 -10.8 -7.9 -1.1 -8.6 -1.4 -10.1 -4.9 -0.8 -1.9 -1.4 -4.6 -1.4 -6 0 -2.3 -0.4 -2.5 -4 -2.5 -2.2 0 -4 0.3 -4 0.6 0 0.3 3.2 4 7.1 8.2 3.9 4.3 9.7 11 12.8 14.9 3.1 4 5.7 7.3 5.9 7.3 0.1 0 0.2 -3.1 0.2 -6.8z m-186.1 -6.8 c5.9 -0.6 6.1 -0.8 6.1 -3.5 l0 -2.9 -7.2 3.6 c-7.2 3.6 -9.9 5.3 -6.6 4.1 0.9 -0.3 4.4 -0.9 7.7 -1.3z m196 -11.5 c3.7 -1.3 3.8 -1.9 0.9 -4.6 -5.1 -4.6 -8.4 -5.3 -11.9 -2.4 l-2.3 1.8 4.4 3.2 c4.9 3.5 4.6 3.5 8.9 2z m-17.9 -23.8 c2.5 -0.7 2.5 -0.7 -1.5 -3.4 -6.8 -4.5 -19.7 -5.9 -25.3 -2.8 -1.4 0.8 -1 1.3 2.3 2.7 8.7 3.7 18.6 5.2 24.5 3.5z"/>
  <path d="M434 578.1 c-0.8 -0.5 -4.4 -1.7 -8 -2.6 -8 -2.1 -9 -2.9 -9 -7.1 0 -3.4 0 -3.4 4.8 -3.4 2.6 0 8.2 1.1 12.5 2.5 4.3 1.4 10 2.5 12.7 2.5 l5 0 0 3.9 c0 2.6 -0.5 4.1 -1.6 4.5 -2.4 0.9 -14.7 0.7 -16.4 -0.3z"/>
  <path d="M444.5 568 c-9.8 -1.1 -10.5 -1.5 -10.5 -6.2 l0 -4.1 10.8 0.6 c6.3 0.3 12.7 1.2 15.5 2.2 4.4 1.6 4.7 1.9 4.7 5.1 l0 3.4 -7.2 -0.1 c-4 -0.1 -10 -0.5 -13.3 -0.9z"/>
  <path d="M454.5 556.4 c-4.9 -0.8 -10.8 -2 -13 -2.7 -3.8 -1.3 -4 -1.6 -4.3 -6 l-0.3 -4.7 5.4 0 c4.5 0 31.1 4.7 37 6.6 1.2 0.4 1.7 1.6 1.7 4.5 l0 3.9 -8.7 -0.1 c-4.9 -0.1 -12.8 -0.8 -17.8 -1.5z"/>
  <path d="M470.5 543.9 c-6 -1 -16.4 -2.4 -23 -3 -14.7 -1.4 -16.7 -2.4 -16.3 -8.2 0.5 -6.8 2.5 -6.9 34.3 -0.4 l27 5.4 0 3.9 0 3.9 -5.5 0.2 c-3 0.1 -10.4 -0.7 -16.5 -1.8z"/>
  <path d="M477.6 528.4 c-8.1 -0.8 -16.3 -2.1 -18.2 -2.9 -3.1 -1.3 -3.4 -1.8 -3.4 -5.3 0 -2.7 0.5 -4.2 1.6 -4.6 2.7 -1 9 -0.7 15.9 0.9 3.6 0.9 10 2 14.3 2.5 4.2 0.6 9.2 1.5 11 2.1 3 1 3.3 1.4 3 4.7 -0.3 3.6 -0.4 3.7 -4.8 3.8 -2.5 0.1 -11.2 -0.5 -19.4 -1.2z"/>
  <path d="M498.5 516.9 c-4.4 -0.4 -13.7 -1.2 -20.6 -1.8 -6.9 -0.6 -13.4 -1.3 -14.3 -1.7 -1.2 -0.4 -1.6 -1.9 -1.6 -5.5 0 -4.5 0.2 -4.9 2.8 -5.6 6 -1.6 11.9 -1.1 47.2 4.4 14.3 2.2 15 2.5 15 6.6 l0 3.4 -6.1 0.7 c-7.2 0.7 -11.4 0.6 -22.4 -0.5z"/>
  <path d="M501.5 500.9 c-6.6 -1 -14.5 -1.8 -17.6 -1.8 -6.6 -0.1 -8.2 -1.4 -7.7 -6.3 l0.3 -3.3 9.3 -0.3 c9 -0.3 32.7 3.1 42.5 6 3.3 1 3.7 1.5 3.7 4.5 l0 3.3 -9.2 -0.1 c-5.1 -0.1 -14.7 -1 -21.3 -2z"/>
  <path d="M509.5 487.4 c-18.1 -3.2 -34 -6.5 -34.8 -7.3 -0.5 -0.5 -0.7 -2.8 -0.5 -5.2 l0.3 -4.4 6.7 -0.3 c4.9 -0.2 11 0.7 23 3.4 9 2 21.3 4 27.5 4.5 6.1 0.4 13.2 1.3 15.7 2 4.3 1.1 4.6 1.4 4.6 4.4 0 2.5 -0.5 3.4 -2.2 3.9 -4.2 1.1 -32.2 0.4 -40.3 -1z"/>
  <path d="M519.4 475 c-3.3 -0.4 -6.6 -1 -7.2 -1.4 -0.7 -0.4 -1.2 -2.7 -1.2 -5.1 0 -4.2 0.1 -4.4 3.4 -5 1.8 -0.4 6.7 -0.2 10.7 0.3 4.1 0.6 13.5 1 21 1 16.4 0 17.9 0.6 17.9 6.9 l0 4.3 -19.2 -0.1 c-10.6 -0.1 -22 -0.5 -25.4 -0.9z"/>
  <path d="M546.5 459.5 c-3.3 -0.8 -10 -1.9 -14.9 -2.5 -4.9 -0.6 -9.7 -1.5 -10.7 -2.1 -2.2 -1.1 -2.6 -6.8 -0.7 -8.7 2 -2 12.2 -1.3 24 1.7 6.2 1.6 13.7 3.2 16.6 3.6 4.9 0.6 5.2 0.9 5.2 3.5 0 5.4 -0.7 6 -7.4 5.9 -3.3 -0.1 -8.8 -0.7 -12.1 -1.4z"/>
  <path d="M81.7 449.3 c-0.4 -0.3 -0.7 -2.1 -0.7 -3.9 0 -4.8 3.2 -6.6 10.7 -6.2 l5.8 0.3 0.3 3.7 c0.3 3.2 -0.1 3.9 -2.7 5.2 -3 1.6 -12.2 2.2 -13.4 0.9z"/>
  <path d="M553.9 442.6 c-0.2 -0.2 -4.7 -0.9 -9.9 -1.5 -15.6 -1.8 -15 -1.6 -15 -6.7 l0 -4.4 6.3 0 c6 0 14.5 1.3 29.5 4.6 l7.2 1.5 0 3.5 0 3.4 -8.8 0 c-4.9 0 -9.1 -0.2 -9.3 -0.4z"/>
  <path d="M73.3 436.3 c-1.8 -0.7 -1.7 -8.8 0.1 -10.2 0.9 -0.8 5.1 -1.1 12.2 -0.9 l10.9 0.3 0 4 0 3.9 -6.5 1.7 c-6.3 1.7 -14.2 2.3 -16.7 1.2z"/>
  <path d="M560 427.9 c-3.6 -0.5 -10.1 -1.7 -14.5 -2.7 l-8 -1.8 -0.3 -3.8 c-0.2 -2.4 0.2 -4.2 1 -4.7 2 -1.3 10.7 -1 17.7 0.6 3.5 0.9 9.6 2 13.5 2.6 3.9 0.5 8.8 1.4 10.9 2 3.3 0.9 3.7 1.3 3.7 4.3 0 3.2 -0.2 3.4 -4.6 4 -5.7 0.7 -10.8 0.6 -19.4 -0.5z"/>
  <path d="M68.7 422.3 c-0.4 -0.3 -0.7 -2.5 -0.7 -4.9 0 -2.9 0.5 -4.4 1.6 -4.8 0.9 -0.3 7.2 -0.6 14 -0.6 l12.5 0 -0.3 4.2 -0.3 4.3 -6.5 1.2 c-7.1 1.3 -19.3 1.7 -20.3 0.6z"/>
  <path d="M564 415 c-4.7 -1.1 -12.5 -2.6 -17.5 -3.5 -12.8 -2.2 -13.5 -2.6 -13.5 -7.5 0 -3.5 0.4 -4.2 2.8 -5.1 5.1 -2 22 1.1 43.7 7.9 l9 2.8 0.3 3.7 0.3 3.7 -8.3 -0.1 c-4.6 0 -12.1 -0.9 -16.8 -1.9z"/>
  <path d="M63.3 408.4 c-1.7 -0.7 -1.7 -8.6 -0.1 -10.2 0.7 -0.7 2.6 -1.3 4.3 -1.4 1.9 -0.1 1.2 -0.3 -2 -0.7 l-5 -0.6 -0.3 -4.6 c-0.2 -2.9 0.2 -5 1 -5.7 0.8 -0.6 7.6 -1.8 15.3 -2.7 7.7 -0.9 17.8 -2.2 22.5 -3 4.7 -0.8 14.1 -2.1 21 -3 6.9 -0.9 15.2 -2 18.5 -2.5 3.3 -0.6 9.1 -1 12.8 -1 l6.8 0 -0.3 3.7 c-0.3 3.6 -0.5 3.8 -6.3 5.6 -6.4 2 -59.3 11.5 -66 11.9 -2.2 0.1 1.9 0.5 9 0.8 l13 0.5 0 3.9 c0 3.8 -0.2 3.9 -4.5 5.2 -7.9 2.2 -36.9 5 -39.7 3.8z"/>
  <path d="M570 400.6 c-8.3 -1.5 -9 -2 -9 -6.3 l0 -3.6 8.8 0.7 c4.8 0.3 11 1.2 13.7 1.9 4.8 1.3 5 1.5 5.3 5 l0.3 3.7 -6.3 -0.1 c-3.5 -0.1 -9.2 -0.7 -12.8 -1.3z"/>
  <path d="M572 385.5 c-3.6 -0.7 -8.7 -1.7 -11.5 -2.2 l-5 -0.8 0 -4.5 0 -4.5 9.9 0.2 c6 0.2 13.1 1.1 17.8 2.3 4.2 1.1 9.3 2 11.2 2 5.6 0 6.6 0.8 6.6 5.1 l0 3.9 -11.2 -0.1 c-6.2 -0.1 -14.2 -0.7 -17.8 -1.4z"/>
  <path d="M576.7 373.5 c-13.2 -1.6 -20.2 -3.2 -21.7 -5 -0.6 -0.8 -1 -2.9 -0.8 -4.7 0.4 -4.3 2.4 -4.6 13.7 -1.9 11.4 2.7 20.3 4.1 27.4 4.1 l5.7 0 0 3.5 c0 3.1 -0.3 3.5 -3.7 4.4 -4.6 1.3 -6.7 1.3 -20.6 -0.4z"/>
  <path d="M352 370.5 c-0.8 -0.2 -4.1 -0.7 -7.2 -1 -5.8 -0.6 -5.8 -0.7 -5.8 -4 0 -2.5 0.5 -3.4 2.3 -3.9 3.5 -0.9 13.2 -0.7 18.7 0.5 5.1 1.1 5.1 1.1 4.8 4.7 l-0.3 3.7 -5.5 0.2 c-3 0 -6.2 0 -7 -0.2z"/>
 </g>
 <g fill="#8a7330">
  <path d="M559 459.5 c0 -0.8 0.6 -1.5 1.4 -1.5 0.8 0 1.6 -0.7 2 -1.5 0.4 -1 -0.1 -1.5 -1.4 -1.5 -1.1 0 -2 -0.4 -2 -1 0 -0.5 2 -1 4.5 -1 l4.5 0 0 4 0 4 -4.5 0 c-3.3 0 -4.5 -0.4 -4.5 -1.5z"/>
  <path d="M71 332 c0 -1.3 1.1 -1.3 3 0 1.2 0.8 1.1 1 -0.7 1 -1.3 0 -2.3 -0.4 -2.3 -1z"/>
  <path d="M74.8 326.1 c-0.9 -1.1 -1.4 -2.2 -1 -2.5 0.6 -0.7 4.2 2.3 4.2 3.6 0 1.4 -1.5 0.9 -3.2 -1.1z"/>
  <path d="M118.8 323.4 c0.6 -0.3 1 -1 0.6 -1.5 -0.3 -0.5 0.1 -0.9 0.8 -0.9 0.9 0 1.4 -1.1 1.3 -2.7 0 -1.6 0.6 -3.5 1.4 -4.5 1.7 -2 5.1 -1 9.9 3.2 l3.4 2.8 -3.4 0.7 c-1.8 0.4 -3.7 1 -4.2 1.3 -0.5 0.3 -2.1 0.6 -3.6 0.7 -1.4 0.1 -3.7 0.5 -5 0.9 -1.4 0.3 -1.9 0.3 -1.2 0z m10.2 -3.4 c0 -0.5 -0.7 -1 -1.5 -1 -0.8 0 -1.5 0.5 -1.5 1 0 0.6 0.7 1 1.5 1 0.8 0 1.5 -0.4 1.5 -1z"/>
  <path d="M115 321.1 c0 -0.5 0.7 -1.6 1.5 -2.5 0.8 -0.8 1.5 -2.4 1.5 -3.6 0 -1.2 0.7 -2.8 1.5 -3.6 1.3 -1.4 1.5 -1.4 1.5 0.1 0 0.9 -0.9 3.3 -2 5.5 -2 3.9 -4 6 -4 4.1z"/>
  <path d="M141.5 320.3 c-6.5 -1.7 -3.3 -4.6 4.2 -3.8 3.1 0.4 5.4 0.2 5.8 -0.4 0.3 -0.6 1.3 -1.1 2.1 -1.1 0.8 0 2.2 -0.6 3 -1.2 0.8 -0.7 2 -1.8 2.7 -2.3 2.8 -2.3 6.7 -4.5 8.2 -4.5 2 0 1.9 1.6 -0.3 3.2 -3.1 2.2 -3.5 3.8 -1.7 5.8 1.6 1.8 1.6 2 0.2 2.6 -0.9 0.3 -4.2 0.7 -7.4 0.8 -3.2 0.2 -7.8 0.6 -10.3 0.9 -2.5 0.3 -5.4 0.3 -6.5 0z"/>
  <path d="M595.9 315.3 c-0.1 -0.5 -0.1 -1.5 0 -2.3 0.1 -2.6 -4.4 -5.1 -7.3 -4 -1.6 0.6 -2.7 0.6 -3.1 0 -0.4 -0.6 -0.1 -1 0.5 -1 0.6 0 0.8 -0.4 0.5 -1 -0.3 -0.5 0.3 -1 1.5 -1 1.2 0 1.8 -0.5 1.5 -1 -0.3 -0.6 0.1 -1.3 1 -1.6 1.7 -0.7 6.5 3.5 6.5 5.6 0 0.5 0.4 1 0.8 1 0.5 0 1.4 1.1 2 2.4 0.9 2 0.8 2.5 -0.4 3 -2.1 0.8 -3.4 0.7 -3.5 -0.1z"/>
  <path d="M238 313.9 c0 -0.4 0.5 -1.1 1 -1.4 0.6 -0.4 0.8 -1.1 0.5 -1.6 -0.4 -0.5 -0.1 -0.9 0.5 -0.9 0.6 0 0.8 -0.4 0.5 -1 -0.3 -0.5 -0.1 -1 0.5 -1 0.6 0 0.9 -0.4 0.6 -0.9 -0.5 -0.8 1.5 -2.1 3.4 -2.1 1.4 0 4 4.8 3.4 6.3 -0.3 0.9 -1.3 1.3 -2.5 1 -1 -0.3 -1.9 -0.1 -1.9 0.5 0 0.5 -1.3 1.2 -3 1.4 -1.6 0.3 -3 0.1 -3 -0.3z"/>
  <path d="M585.6 314.3 c-0.2 -0.3 -1 -0.5 -1.8 -0.6 -0.7 -0.2 -1.4 -0.6 -1.5 -1 -0.3 -0.7 0 -0.8 1.5 -0.6 0.4 0.1 2.2 0 4 -0.1 1.7 -0.1 3.2 0.3 3.2 0.8 0 1 -4.6 2.3 -5.4 1.5z"/>
  <path d="M139.3 313.3 c1.5 -0.2 3.7 -0.2 5 0 1.2 0.2 0 0.4 -2.8 0.4 -2.7 0 -3.8 -0.2 -2.2 -0.4z"/>
  <path d="M501 313.2 c0.1 -2.4 1.9 -3.3 5.3 -2.7 2.7 0.5 3.3 1 2.5 1.9 -1.2 1.2 -7.8 1.9 -7.8 0.8z"/>
  <path d="M129.1 311.4 c-1.9 -0.8 -3.2 -1.7 -2.9 -2 0.7 -0.6 7.8 2.2 7.8 3 0 0.9 -1.2 0.7 -4.9 -1z"/>
  <path d="M601.8 309.9 c-0.9 -1.6 -1.4 -2.9 -0.9 -2.9 0.8 0 3.4 5 2.9 5.6 -0.2 0.1 -1.1 -1.1 -2 -2.7z"/>
  <path d="M235 311.5 c0 -1.8 3.4 -8.4 4.6 -8.9 1 -0.4 0.6 1 -1.1 4.4 -2.2 4.4 -3.5 6 -3.5 4.5z"/>
  <path d="M418 311.4 c-5.8 -0.7 -8 -1.4 -8 -2.5 0 -0.6 1 -1 2.3 -0.8 3.3 0.2 8.7 -1.2 8.1 -2.2 -0.3 -0.5 0 -0.9 0.5 -0.9 0.6 0 3.8 -1.3 7.2 -3 l6.1 -2.9 5.7 5.4 c3 2.9 5.3 5.7 4.9 6.1 -0.4 0.3 -2.2 0.6 -4 0.6 -6 0 -6.1 -0.1 -4.2 -1.9 1.1 -1.1 1.3 -1.8 0.5 -2.1 -0.6 -0.2 -1.1 -1.2 -1.1 -2.3 0 -2.5 -3.1 -2.5 -5.3 0.1 -1.7 2 -1.6 2.1 1 3.1 1.8 0.6 2.3 1.3 1.6 2 -1.2 1.2 -10.1 1.9 -15.3 1.3z"/>
  <path d="M309.2 308.5 c-1.2 -1.4 -2.2 -3.1 -2.2 -3.9 0 -0.8 -0.6 -1.6 -1.3 -1.9 -1.6 -0.6 -3.9 0.6 -3.7 1.9 0.1 0.5 -0.2 1 -0.7 1.1 -0.4 0.2 -0.8 -0.8 -0.8 -2.2 0 -1.4 0.4 -2.5 0.9 -2.5 0.4 0 0.6 -0.9 0.3 -2 -0.3 -1.1 -0.1 -2 0.4 -2 0.6 0 0.9 -0.8 0.7 -1.7 -0.2 -1 0.4 -1.9 1.3 -2.1 1.2 -0.2 2.2 1.4 3.8 5.7 1.2 3.3 2.8 6.6 3.5 7.3 0.7 0.8 1 2.1 0.7 3.1 -0.6 1.6 -0.9 1.5 -2.9 -0.8z"/>
  <path d="M405.7 310.3 c-0.4 -0.3 -3.9 -0.7 -7.9 -0.8 -8.4 -0.2 -12.8 -1.3 -10.7 -2.5 0.7 -0.5 2.6 -0.6 4.2 -0.3 1.6 0.3 3.2 0.1 3.6 -0.4 0.4 -0.6 3 -0.2 7 1.2 3.6 1.2 6 2.4 5.4 2.8 -0.5 0.4 -1.3 0.4 -1.6 0z"/>
  <path d="M578 310 c0 -0.7 0.9 -1.4 1.9 -1.7 1.1 -0.3 2.2 -1.6 2.5 -2.9 0.4 -1.3 1.3 -2.4 2 -2.4 0.8 0 1.6 -0.7 2 -1.5 0.3 -0.8 1.5 -1.5 2.7 -1.5 l2.2 0 -2.2 2.4 c-3.4 3.6 -11.1 8.9 -11.1 7.6z"/>
  <path d="M156.2 308.7 c2 -1.9 6.6 -4.7 7.8 -4.7 2 0 0 2 -4 4 -4.5 2.3 -5.7 2.5 -3.8 0.7z"/>
  <path d="M250.6 306.3 c-1.9 -2 -3.3 -3.9 -3.1 -4.2 0.3 -0.2 1.1 0.1 1.7 0.7 0.7 0.7 2.2 1.2 3.5 1.2 1.9 0 2.3 0.5 2.3 3 0 1.7 -0.2 3 -0.4 3 -0.2 0 -2 -1.7 -4 -3.7z"/>
  <path d="M498.6 308.5 c0.4 -0.8 1.6 -1.5 2.7 -1.5 2 0 2 0 0.1 1.5 -2.5 1.9 -3.5 1.9 -2.8 0z"/>
  <path d="M377 307.5 c-1.1 -1.4 -1.1 -1.8 -0.1 -2.5 0.8 -0.4 1 -1.3 0.7 -1.9 -0.4 -0.6 -0.3 -1.1 0.3 -1.1 0.6 0 0.8 -0.7 0.5 -1.5 -0.4 -0.8 -0.1 -1.5 0.6 -1.5 0.6 0 0.8 -0.4 0.5 -1 -0.7 -1.1 2.5 -1.3 4 -0.2 0.6 0.4 1.1 1.3 1.3 2 0.3 1.7 -2 8.2 -2.9 8.2 -0.4 0 -1.4 0.2 -2.2 0.5 -0.7 0.3 -2 -0.1 -2.7 -1z"/>
  <path d="M313.4 303.9 c-2.2 -3.6 -5.6 -13 -5 -13.6 0.2 -0.2 1.3 2.4 2.5 5.6 1.2 3.3 2.9 6.7 3.7 7.6 0.9 0.8 1.4 2 1.2 2.7 -0.2 0.6 -1.3 -0.4 -2.4 -2.3z"/>
  <path d="M442.5 301.8 l-5 -5.3 5.3 5 c2.8 2.7 5.2 5.1 5.2 5.2 0 0.8 -0.9 -0.1 -5.5 -4.9z"/>
  <path d="M407.3 305.3 c0.9 -0.2 2.5 -0.2 3.5 0 0.9 0.3 0.1 0.5 -1.8 0.5 -1.9 0 -2.7 -0.2 -1.7 -0.5z"/>
  <path d="M297.4 299.9 c0.6 -5.3 2.2 -9.9 3.5 -9.9 0.5 0 0 2.8 -1 6.3 -2.6 8.4 -3 9 -2.5 3.6z"/>
  <path d="M417 303 c0 -0.5 0.4 -1 1 -1 0.5 0 3.7 -1.3 7 -2.9 3.3 -1.6 5.7 -2.5 5.4 -2 -0.5 0.8 -12 6.9 -13.1 6.9 -0.2 0 -0.3 -0.4 -0.3 -1z"/>
  <path d="M132.7 282.3 c1.8 -1.8 3.8 -3.3 4.5 -3.3 0.7 0 0.4 0.6 -0.7 1.2 -1.1 0.6 -3.1 2 -4.5 3.2 -1.4 1.1 -1.1 0.6 0.7 -1.1z"/>
  <path d="M124.3 281.5 c0 -0.8 0.4 -1.5 0.9 -1.5 0.4 0 0.8 -0.7 0.8 -1.5 0 -0.8 0.7 -1.5 1.5 -1.5 0.8 0 1.5 -0.5 1.5 -1.1 0 -1.3 6.9 -4.2 8.6 -3.5 2.3 0.9 1.6 2.6 -1.2 2.6 -1.4 0 -2.3 0.4 -1.9 1 0.3 0.6 0.2 1 -0.4 1 -0.6 0 -2.6 1.4 -4.4 3 -3.8 3.3 -5.4 3.8 -5.4 1.5z"/>
  <path d="M169.5 278.7 c-2.5 -2.9 -6.8 -5.7 -9.2 -6.2 -1 -0.2 -2 -0.4 -2.3 -0.5 -0.3 -0.1 0.5 -0.5 1.6 -1 1.3 -0.5 4 -0.4 6.5 0.2 7.1 1.6 7.2 1.7 6.1 3.1 -0.7 0.8 -0.7 1.8 -0.2 2.7 1.2 1.8 1.3 4 0.3 4 -0.5 0 -1.7 -1.1 -2.8 -2.3z"/>
  <path d="M119.5 278 c-1.1 -1.7 0.5 -3.2 2.1 -1.9 0.8 0.6 1.4 1.5 1.4 2 0 1.2 -2.7 1.1 -3.5 -0.1z"/>
  <path d="M238.8 277.9 c-1 -0.5 -1.8 -1.4 -1.8 -1.9 0 -0.6 -1.7 -2.6 -3.7 -4.6 -2.1 -1.9 -2.9 -3.1 -1.8 -2.6 1.9 1 5.5 4.6 8.4 8.5 1.5 1.9 1.3 2.1 -1.1 0.6z"/>
  <path d="M293.4 273.9 c-1.6 -1.8 -4.2 -4 -5.9 -5 -3.5 -2.2 -2.6 -2.5 1.3 -0.5 3.1 1.6 8.8 7.3 8.1 8.1 -0.3 0.3 -1.9 -0.9 -3.5 -2.6z"/>
  <path d="M241.8 274.9 c-1 -0.5 -1.8 -1.4 -1.8 -1.8 0 -0.5 -2.3 -3.2 -5.2 -6 -5.3 -5.3 -5.7 -7.2 -1 -5.5 1.7 0.6 2.6 1.6 2.4 2.7 -0.2 1.1 0.4 1.7 1.7 1.7 1.1 0 2.5 0.9 3.1 2 1.3 2.5 2.9 2.6 4.5 0.3 1.1 -1.5 1.5 -1.5 3 -0.3 1.6 1.3 1.6 1.5 -0.1 2.7 -1 0.7 -1.5 1.3 -1.1 1.3 0.4 0 0.3 0.9 -0.3 2 -1.2 2.2 -2.6 2.5 -5.2 0.9z"/>
  <path d="M305.5 273 c0.9 -1.6 1.8 -3 2.1 -3 0.2 0 -0.2 1.4 -1.1 3 -0.9 1.7 -1.8 3 -2.1 3 -0.2 0 0.2 -1.3 1.1 -3z"/>
  <path d="M589.7 274.3 c-1.1 -1 1.3 -3.2 2.9 -2.6 2 0.8 1.7 3.3 -0.4 3.3 -1 0 -2.2 -0.3 -2.5 -0.7z"/>
  <path d="M294.9 269.5 c-5.7 -5.4 -10.5 -6.8 -22.4 -6.7 -21.9 0.3 -27.8 0.3 -28.3 -0.3 -0.3 -0.3 1.3 -0.5 3.6 -0.5 2.2 0 4.3 -0.4 4.6 -0.9 0.6 -0.9 54 -1.6 55.6 -0.6 0.9 0.6 -5.3 11.5 -7.3 12.6 -0.7 0.5 -3.1 -1 -5.8 -3.6z m6.7 -4.5 c0 -2.2 -1.2 -2.7 -6.6 -2.9 l-3.5 -0.1 3 2.5 c3.7 3.1 7.1 3.3 7.1 0.5z"/>
  <path d="M373.7 270.7 l-1.7 -3.2 2 2.4 c1.7 2 2.6 4.1 1.8 4.1 -0.2 0 -1.1 -1.5 -2.1 -3.3z"/>
  <path d="M379.7 271.9 c-0.9 -0.9 -1.3 -2 -1 -2.3 0.4 -0.3 0 -0.6 -0.7 -0.6 -0.7 0 -1.1 -0.3 -0.7 -0.6 0.3 -0.3 -0.3 -1.4 -1.4 -2.5 -1 -1 -1.9 -2.5 -1.9 -3.3 0 -0.7 -1.4 -1.6 -3.2 -2 -1.7 -0.3 -2.8 -0.9 -2.5 -1.3 0.8 -0.8 75.3 -1.6 78.4 -0.8 1.9 0.4 2.2 0.9 1.4 2.4 -1.2 2.1 -7 3.6 -8.5 2.1 -1.4 -1.4 -7.3 -1.2 -7.9 0.3 -0.3 0.9 -1.1 0.8 -3.3 -0.4 -5.2 -3 -28.4 -1.1 -32 2.6 -0.9 0.9 -2.9 1.9 -4.5 2.2 -1.6 0.3 -2.6 0.9 -2.3 1.4 0.2 0.5 -0.7 1.1 -2.1 1.5 -1.3 0.3 -2.3 1 -2 1.4 1 1.7 -4.4 1.6 -5.8 -0.1z m9.6 -7 c1.1 -1 1.6 -2.3 1.2 -2.9 -0.5 -0.9 -0.9 -0.9 -1.4 -0.1 -0.9 1.4 -4.6 1.7 -9 0.6 l-3.4 -0.7 2.4 2.9 c1.9 2.3 3 2.8 5.3 2.5 1.7 -0.3 3.8 -1.3 4.9 -2.3z"/>
  <path d="M505.9 271.3 c-0.8 -0.9 -3.2 -2.9 -5.3 -4.5 -2.1 -1.5 -3.4 -2.8 -2.8 -2.8 1.1 0 11.1 8.9 10.1 9 -0.4 0 -1.3 -0.8 -2 -1.7z"/>
  <path d="M544.3 269.4 c-5 -2.4 -6.8 -4.3 -4 -4.5 0.6 0 0.1 -0.5 -1.3 -1 -1.9 -0.8 -2.1 -1.2 -1.1 -1.8 0.8 -0.5 2.6 -0.7 4 -0.5 1.4 0.2 5.3 0.5 8.6 0.7 5.4 0.2 6 0.4 5.9 2.3 -0.2 2.9 -3.4 7.4 -5.3 7.3 -0.9 0 -4 -1.2 -6.8 -2.5z m7.7 -1.3 c0 -1.2 -2.6 -2.2 -7 -2.7 l-3.5 -0.4 3 1.9 c3.1 2 7.5 2.7 7.5 1.2z"/>
  <path d="M508.4 267.9 c-1.6 -1.7 -4.1 -3.8 -5.6 -4.7 -1.6 -0.9 -2.8 -2.2 -2.8 -2.9 0 -1.7 1.1 -1.6 3.9 0.4 1.9 1.3 2.8 1.4 4.2 0.5 2.6 -1.6 20.9 -1.5 22.9 0.1 2.2 1.8 2.2 3.4 0 4 -1.1 0.3 -2 0.1 -2 -0.4 0 -0.5 -1.1 -0.7 -2.5 -0.3 -1.4 0.3 -3.1 0.2 -3.8 -0.4 -2.1 -1.7 -6.6 -2 -7.1 -0.5 -0.4 1 -1 1.1 -2.5 0.3 -2.7 -1.4 -3 -1.3 -2.4 0.9 0.2 1 1.5 2.4 2.9 3.1 1.3 0.7 2.1 1.7 1.8 2.2 -1.1 1.7 -4.1 0.7 -7 -2.3z"/>
  <path d="M610.7 269.3 c-0.8 -0.8 -0.9 -4.3 -0.1 -4.3 0.3 0 1.4 0.5 2.5 1 1.7 1 1.8 1.3 0.5 2.5 -1.6 1.7 -2 1.8 -2.9 0.8z"/>
  <path d="M598.5 268 c-0.4 -0.6 -2.7 -0.9 -5.1 -0.7 -2.5 0.2 -5.2 -0.2 -6.1 -0.8 -1.4 -1 -1.1 -1.3 1.8 -1.9 1.9 -0.3 4.9 -0.2 6.8 0.4 1.9 0.5 3.8 0.7 4.4 0.3 0.5 -0.3 1.3 0.1 1.8 0.8 0.5 0.8 0.3 1.7 -0.4 2.1 -1.6 1 -2.5 1 -3.2 -0.2z"/>
  <path d="M434 267.1 c0 -1.6 1.9 -2.3 4.1 -1.6 1.7 0.6 1.9 0.9 0.8 1.6 -1.9 1.2 -4.9 1.1 -4.9 0z"/>
  <path d="M610.5 263.5 l-4 -1.3 4.1 -0.1 c2.2 -0.1 4.9 0.6 6 1.4 1.9 1.4 1.9 1.4 -0.1 1.4 -1.1 0 -3.8 -0.6 -6 -1.4z"/>
  <path d="M51 261.9 c0 -1.5 0.5 -1.9 1.5 -1.5 0.8 0.3 1.5 0.1 1.5 -0.4 0 -0.6 0.7 -1 1.5 -1 0.8 0 1.5 0.4 1.5 1 0 0.5 0.7 0.7 1.5 0.4 1 -0.4 1.5 0 1.5 1.5 0 1.8 -0.6 2.1 -4.5 2.1 -3.9 0 -4.5 -0.3 -4.5 -2.1z"/>
  <path d="M595.1 262.9 c-6.6 -0.8 -9.3 -1.9 -4.9 -1.9 5.6 0 14.8 1.3 14.8 2.1 0 1 -0.9 1 -9.9 -0.2z"/>
  <path d="M546.7 260 c-5.4 -0.4 -10.1 -1.1 -10.5 -1.5 -1 -1 22.1 0.6 23.3 1.6 0.5 0.5 0.1 0.8 -1 0.8 -1.1 -0.1 -6.4 -0.5 -11.8 -0.9z"/>
  <path d="M229.3 258.3 c1.5 -0.2 3.9 -0.2 5.5 0 1.5 0.2 0.2 0.4 -2.8 0.4 -3 0 -4.3 -0.2 -2.7 -0.4z"/>
  <path d="M249.7 257.8 c0.2 -0.5 14.2 -0.7 31.1 -0.6 16.9 0.1 28.5 0.3 25.7 0.5 -11.8 0.7 -57.3 0.7 -56.8 0.1z"/>
  <path d="M524 258 l-8.5 -0.6 8.7 -0.2 c4.9 -0.1 8.9 0.2 9.3 0.8 0.3 0.6 0.3 0.9 -0.2 0.8 -0.4 -0.1 -4.6 -0.5 -9.3 -0.8z"/>
  <path d="M498.8 256.3 c1.2 -0.2 3.2 -0.2 4.5 0 1.2 0.2 0.2 0.4 -2.3 0.4 -2.5 0 -3.5 -0.2 -2.2 -0.4z"/>
  <path d="M371.8 255.3 c1.7 -0.2 4.7 -0.2 6.5 0 1.7 0.2 0.3 0.4 -3.3 0.4 -3.6 0 -5 -0.2 -3.2 -0.4z"/>
  <path d="M409.8 255.3 c7.2 -0.2 19.2 -0.2 26.5 0 7.2 0.1 1.3 0.3 -13.3 0.3 -14.6 0 -20.5 -0.2 -13.2 -0.3z"/>
  <path d="M132 163.5 c0 -0.8 0.6 -1.5 1.4 -1.5 0.8 0 1.6 -0.7 2 -1.5 0.4 -1 -0.1 -1.5 -1.4 -1.5 -1.1 0 -2 -0.4 -2 -1 0 -0.5 2 -1 4.5 -1 l4.5 0 0 4 0 4 -4.5 0 c-3.3 0 -4.5 -0.4 -4.5 -1.5z"/>
  <path d="M159 77 c0 -3.7 0.2 -4 2.8 -4 2.3 0.1 2.4 0.2 1 1.1 -2.4 1.4 -2.3 2.8 0.2 2.2 1.1 -0.3 2 0 2 0.6 0 0.5 0.7 0.8 1.5 0.5 1 -0.4 1.5 0 1.5 1.5 0 1.8 -0.6 2.1 -4.5 2.1 l-4.5 0 0 -4z"/>
 </g>
 <g fill="#7a8684">
  <path d="M371 9.5 c0 -3.3 0.2 -3.5 3.5 -3.5 3.3 0 3.5 0.2 3.5 3.5 0 3.3 -0.2 3.5 -3.5 3.5 -3.3 0 -3.5 -0.2 -3.5 -3.5z"/>
 </g>
 <g fill="#478ac9">
  <path d="M454.3 429 c-2.9 -1.2 -4.3 -4 -4.3 -8.5 0 -2.9 0.8 -4.5 3.4 -7.1 2.8 -2.8 4.1 -3.4 7.8 -3.4 5.8 0 7.8 2.1 7.8 8.1 0 8.4 -7.3 13.9 -14.7 10.9z"/>
  <path d="M459.5 381.1 c-2.8 -1.2 -5.2 -4 -7 -8.5 -2.2 -5.3 -0.7 -9.2 6.4 -16.6 l5.7 -6 7.7 0 c9.3 0 13.9 1.7 16.7 6.2 4.1 6.7 -0.5 18.9 -8.9 23.6 -3 1.7 -5.4 2.2 -11.2 2.1 -4.1 0 -8.3 -0.4 -9.4 -0.8z"/>
  <path d="M488.1 350.4 c-1.9 -1.3 -2.9 -2.4 -2.3 -2.4 0.6 0 2.4 1.1 3.9 2.5 3.5 3.1 2.8 3.1 -1.6 -0.1z"/>
  <path d="M365.2 311.8 c7.9 -6.1 8.5 -6.5 6.3 -3.9 -2.3 2.8 -9.4 8.1 -10.7 8.1 -0.6 0 1.4 -1.9 4.4 -4.2z"/>
  <path d="M339.9 310.5 c-8.9 -3.6 -14.3 -7.4 -16.4 -11.5 -0.9 -1.7 -1.5 -6 -1.6 -10.7 -0.1 -6.4 0.3 -8.8 2.1 -12.4 5.2 -10.2 8.8 -13.2 17.8 -14.3 13.1 -1.7 19.9 1.8 26.2 13.5 2.6 4.8 3.3 7.6 3.7 13.9 0.7 9.5 0.1 12 -3.8 16.4 -7.5 8.6 -15.6 10.1 -28 5.1z"/>
  <path d="M471 306.1 c-12.5 -3.8 -20.3 -12.6 -19.4 -21.8 1 -9.9 5.2 -14.2 16.2 -16.3 5.9 -1.1 18.3 0.9 24.8 4.1 6.5 3.1 8.4 6.7 8.4 16 0 6.8 -0.3 7.9 -3.1 11.7 -1.7 2.4 -4.4 4.9 -6 5.7 -3 1.6 -16.4 1.9 -20.9 0.6z"/>
  <path d="M564.9 303.8 c-0.8 -1.5 -1.3 -6.7 -1.2 -14.1 0 -10.1 0.3 -12 1.9 -13.8 2.2 -2.4 8.6 -5.9 10.8 -5.9 2.4 0 6.8 9.6 7 15.1 0.1 4 -0.5 5.6 -3.9 10.5 -2.3 3.4 -5.7 6.8 -8 8.1 -5 2.8 -5.2 2.8 -6.6 0.1z"/>
  <path d="M527.3 300.8 c-4.2 -4.5 -5.3 -7 -5.3 -11.7 0 -5 3.1 -8.9 8.1 -10 4.4 -1 6.1 -0.2 8.8 4.2 4.3 6.9 2.5 16.8 -3.5 19.5 -3.7 1.8 -4.7 1.5 -8.1 -2z"/>
  <path d="M400.3 295.1 c-8.2 -3.8 -9.5 -13 -2.5 -17.7 3.8 -2.6 11.2 -3.8 17.5 -2.9 6.6 1 7.6 2.1 7.8 8.2 0.3 8.6 -4 13.1 -13.3 13.9 -4 0.4 -6.4 0 -9.5 -1.5z"/>
  <path d="M540.7 279.9 c-0.8 -1.1 -3.2 -2.7 -5.4 -3.4 -2.8 -1.1 -3.2 -1.4 -1.5 -1.5 3.1 0 5.6 1.4 7.6 4.5 2 3 1.3 3.4 -0.7 0.4z"/>
  <path d="M391.9 276.7 c1.8 -2.3 6.4 -4.7 8.8 -4.7 1 0.1 0.1 0.7 -2 1.4 -2.1 0.8 -4.8 2.2 -6 3.3 -2 1.7 -2.1 1.7 -0.8 0z"/>
  <path d="M422.5 273.5 c-1.6 -0.8 -2.3 -1.4 -1.4 -1.5 0.8 0 2.4 0.7 3.5 1.5 2.3 1.8 1.8 1.8 -2.1 0z"/>
  <path d="M450 274.7 c0 -2.1 2.4 -4.9 6.1 -6.8 2.3 -1.1 4.3 -1.9 4.5 -1.6 0.2 0.2 -1.3 1.2 -3.4 2.1 -2.1 1 -4.6 2.9 -5.5 4.4 -0.9 1.5 -1.7 2.3 -1.7 1.9z"/>
  <path d="M562.5 273.2 c1.1 -1.3 2.9 -2.8 4 -3.4 2.1 -1.1 1.8 -0.8 -3 3.2 -2.9 2.4 -2.9 2.4 -1 0.2z"/>
  <path d="M364.4 263.8 l-2.9 -3.3 3.3 2.9 c1.7 1.7 3.2 3.1 3.2 3.3 0 0.8 -0.8 0.1 -3.6 -2.9z"/>
  <path d="M326.5 264.1 c2.3 -2.7 6.7 -5.1 9.2 -5.1 1 0.1 0.1 0.7 -2 1.5 -2.2 0.7 -5.1 2.4 -6.5 3.7 l-2.7 2.3 2 -2.4z"/>
  <path d="M462.7 233 c-2.4 -1.9 -5.5 -8.6 -4.4 -9.6 0.3 -0.3 0.8 0.8 1.2 2.4 0.6 2.9 4.6 7.5 7.5 8.5 1.3 0.5 1.2 0.6 -0.1 0.6 -0.9 0.1 -2.8 -0.8 -4.2 -1.9z"/>
  <path d="M466.1 230.4 c-4.8 -3.4 -6.8 -13.6 -3.3 -16.7 4.3 -3.9 12 -2.7 15.6 2.5 2.3 3.2 2 10 -0.5 13.2 -2.4 3.1 -8.1 3.6 -11.8 1z"/>
  <path d="M477.7 181.1 c1.7 -1.1 3.6 -2.8 4.2 -3.8 0.6 -1 1 -1.3 1 -0.8 0 1.5 -2.1 4 -4.6 5.3 -3.6 1.9 -4.1 1.3 -0.6 -0.7z"/>
  <path d="M459.1 177.4 c-9.1 -3.1 -10.9 -4 -14.4 -7.3 -3.5 -3.2 -5.5 -7.8 -6.3 -14.3 -0.6 -4.5 -0.4 -5 2.9 -8.3 3.5 -3.5 3.5 -3.5 12.6 -3.5 13.2 0 21.4 4.1 25.2 12.4 2.1 4.7 1.9 16 -0.2 19.4 -3 4.8 -9 5.3 -19.8 1.6z"/>
  <path d="M441 172.5 c-1.8 -1.9 -3.2 -3.7 -2.9 -3.9 0.2 -0.3 1.9 1.3 3.7 3.5 4.1 4.8 3.7 5.1 -0.8 0.4z"/>
  <path d="M435.3 154.5 c0 -3.8 0.2 -5.3 0.4 -3.2 0.2 2 0.2 5.2 0 7 -0.2 1.7 -0.4 0.1 -0.4 -3.8z"/>
  <path d="M480.1 152 c-1.5 -2.6 -4.1 -5.1 -7.4 -7 -2.9 -1.6 -4.7 -3 -4.1 -3 2.3 0 10.9 6.6 12.7 9.8 1.1 1.8 1.7 3.5 1.5 3.7 -0.2 0.3 -1.5 -1.3 -2.7 -3.5z"/>
  <path d="M426.6 112.9 c-1.4 -1.1 -2.6 -2.6 -2.5 -3.2 0 -0.8 0.3 -0.7 0.6 0.1 0.3 0.8 1.9 2.2 3.7 3.3 1.7 1 2.6 1.9 2 1.9 -0.6 0 -2.3 -0.9 -3.8 -2.1z"/>
  <path d="M437.1 112.9 c-8.2 -2.3 -10.6 -4.5 -9.2 -8.2 1.2 -3.1 6.5 -6.7 9.9 -6.7 7.4 0 14.3 9.6 10.6 14.8 -1.8 2.6 -2.8 2.6 -11.3 0.1z"/>
  <path d="M424 105.3 c-0.2 -5.8 5.9 -10.3 13.8 -10.3 6 0 10.2 1.8 12.6 5.4 2.8 4.3 1.8 4.1 -2.4 -0.4 l-3.9 -4.3 -6.6 0.5 c-7.2 0.6 -9.9 2.2 -12.1 7.3 -0.7 1.7 -1.3 2.5 -1.4 1.8z"/>
  <path d="M417.3 72.9 c-14.7 -4.9 -22.3 -10.1 -22.3 -15.3 0 -5.5 2 -7.1 11.4 -9 4.9 -1.1 10 -1.6 11.9 -1.2 4.2 0.8 10.5 4.9 17.9 11.8 10 9.4 8.7 14.6 -4 15.7 -6 0.6 -8.2 0.3 -14.9 -2z"/>
  <path d="M396.6 67.5 c-2.5 -2 -4.6 -4 -4.6 -4.5 0 -0.5 1 0.1 2.3 1.3 1.2 1.2 3.6 3.2 5.2 4.4 1.7 1.2 2.7 2.3 2.4 2.3 -0.3 0 -2.7 -1.6 -5.3 -3.5z"/>
  <path d="M442.2 60.6 c-2.4 -3.5 -2.7 -4.5 -1.2 -3.1 2.2 1.9 5.5 7.4 4.8 7.9 -0.2 0.2 -1.8 -2 -3.6 -4.8z"/>
  <path d="M384.2 42 c-3.8 -2.7 -6.3 -7.2 -4.8 -8.7 0.3 -0.4 0.6 0 0.6 0.8 0 1.9 6.6 8.9 8.4 8.9 0.8 0 1.8 0.5 2.1 1 1.3 2 -2.3 0.9 -6.3 -2z"/>
  <path d="M392.3 41.8 c-4.1 -1.1 -10.3 -6.9 -10.3 -9.6 0 -2.5 5.8 -7.2 8.9 -7.2 3.5 0 9.3 2.8 12.9 6.2 5.2 5.1 4.1 7.9 -4 10.2 -2.8 0.9 -5.4 1 -7.5 0.4z"/>
  <path d="M382.4 24.8 c1.7 -1.6 3.7 -2.8 4.6 -2.8 0.8 0.1 0.2 0.8 -1.5 1.7 -1.6 0.8 -3.7 2.1 -4.6 2.7 -0.8 0.6 -0.2 -0.1 1.5 -1.6z"/>
  <path d="M365.3 20.3 c0.9 -0.2 2.5 -0.2 3.5 0 0.9 0.3 0.1 0.5 -1.8 0.5 -1.9 0 -2.7 -0.2 -1.7 -0.5z"/>
  <path d="M363.5 17 c-5.8 -1.5 -14.8 -5.1 -16.5 -6.7 -1.3 -1.3 -1.2 -1.7 0.8 -3.4 3.7 -3 9.9 -4.2 18.9 -3.6 5.5 0.3 9.7 1.2 12.7 2.7 5.2 2.5 11.2 8.8 9.8 10.2 -1.3 1.3 -21 1.9 -25.7 0.8z"/>
 </g>
 <g fill="#d2b350">
  <path d="M451.2 467.7 c-1.2 -1.2 -2.8 -4.2 -3.7 -6.7 -0.9 -2.4 -2.9 -6.5 -4.5 -9 -4.6 -7.2 -9.8 -19.9 -19.4 -48 -2.4 -6.9 -4.1 -12.8 -3.9 -13.2 0.8 -1.5 8.1 -0.8 9.8 0.8 2.3 2.3 5.7 1.1 7.8 -2.8 4.7 -8.7 8.5 -38.1 6.7 -52.1 -1.3 -10.9 -1.1 -11.1 12.7 -11.5 5.9 -0.2 16.5 0.1 23.7 0.7 15.9 1.4 16.6 1.9 16.6 11.7 0 3.5 -0.2 6.4 -0.5 6.4 -0.3 0 -2.2 -1.1 -4.3 -2.4 -5.9 -3.9 -21.7 -6.1 -21.7 -3.1 0 0.6 1.3 1.1 2.8 1.3 1.6 0.2 3.1 1 3.4 1.8 0.5 1.3 0.8 1.3 2.2 0 3.4 -3.1 16.1 5.3 16.1 10.5 0 1.1 0.7 1.9 1.5 1.9 1.7 0 2 1.6 0.5 2.5 -1.7 1 -1.1 2.5 1 2.5 2.4 0 2.6 2.2 0.5 4 -2 1.6 -1.9 3.9 0.2 6.2 1.8 2 1 3.9 -0.9 2 -2.2 -2.2 -3 -1.2 -2.3 2.7 0.5 3.3 0.3 4.1 -1.7 5.7 -1.3 1.1 -2.7 2.7 -3.1 3.6 -0.4 1.1 -1.2 1.5 -2.2 1.2 -0.9 -0.4 -2.5 0.2 -3.8 1.4 -3.8 3.5 -10.2 5.6 -13.7 4.4 -1.8 -0.7 -3.2 -0.7 -3.5 -0.1 -1 1.5 -6 1 -10.6 -1.1 -5.1 -2.2 -7.3 -1.2 -4.3 2.1 4 4.5 7.1 5.2 18.2 4.5 5.8 -0.4 12 -1.3 13.9 -2.1 5.3 -2.2 6.3 -2 6.3 1.9 0 4.1 0.9 4.9 8.2 7 4.2 1.2 6.4 2.5 8.3 5 1.4 1.8 2.5 3.8 2.5 4.4 0 0.7 -3 2.6 -6.7 4.4 -9.9 4.6 -15.8 11.2 -38.1 42.3 -8.9 12.5 -10.2 13.3 -14 9.2z m15.7 -27.2 c4.1 -2.1 8.5 -7.5 7.2 -8.8 -0.8 -0.8 -2 -0.4 -4.1 1.1 -2.7 2.1 -9 3.1 -9 1.5 0.1 -0.5 1.9 -1.7 4.2 -2.8 5.6 -2.7 7.8 -6 8.5 -12.8 0.5 -5.1 0.3 -6 -2.1 -9.2 -2.8 -3.6 -2.7 -4.2 0.4 -2.5 2.4 1.3 4 6.2 4 12.1 0 5.6 1.5 7.2 3.1 3.2 2 -5.3 -0.9 -16.1 -5 -18.3 -2.8 -1.4 -6.1 -1.2 -6.1 0.4 0 1 -1.5 1.4 -5.5 1.5 -11.2 0.1 -16.5 5.1 -16.5 15.8 0 5.2 0.4 6.6 2.6 9.3 4.2 4.9 1.9 4.8 -3.1 -0.2 -4.9 -4.9 -5.3 -6.4 -3 -12.8 1.9 -5.3 1.9 -5 -0.4 -5 -3 0 -4.4 2.7 -4.4 8.8 0 6.6 2.4 12.6 6 14.9 3.7 2.5 12.3 5.2 16.6 5.2 2.1 0.1 5.1 -0.6 6.6 -1.4z m-19.1 -33.8 c0.2 -1 -0.3 -1.7 -1.2 -1.7 -1.8 0 -2.9 1.6 -2.1 3.1 0.9 1.4 2.9 0.6 3.3 -1.4z m31.5 -22.3 c10.2 -5.2 15.2 -13.3 14.5 -23.5 -0.5 -6.8 -2.2 -9.3 -8.6 -12.1 -5.6 -2.5 -17.9 -3.5 -21.3 -1.8 -7.4 4 -15.6 13.7 -16.6 19.6 -0.9 5.8 4.6 16.3 9.5 18.3 6.2 2.4 17.2 2.2 22.5 -0.5z m-32.7 -2.6 c0.9 -1.5 -2.7 -4.1 -4 -2.8 -0.6 0.6 -0.5 1.5 0.4 2.5 1.5 1.8 2.6 1.9 3.6 0.3z m10.7 -35.5 c0.5 -0.3 0.6 -1.5 0.3 -2.7 -0.4 -1.5 0.1 -2.6 1.5 -3.4 2.4 -1.5 1.6 -3.2 -1.5 -3.2 -4.9 0 -10.1 6.5 -7.6 9.5 1.1 1.4 4.7 1.2 7.3 -0.2z"/>
  <path d="M17.6 355.5 c-3.5 -3.2 -3.3 -3.9 0.8 -3.1 4.5 0.9 9.6 -1.3 12 -4.9 2.4 -3.6 3.1 -2.6 1.1 1.6 -1.7 3.4 -7.8 8.9 -10 8.9 -0.7 0 -2.4 -1.1 -3.9 -2.5z"/>
  <path d="M70 352.6 c0 -1.3 2.8 -2.6 5.8 -2.6 0.6 0 1.2 0.9 1.2 2 0 1.6 -0.7 2 -3.5 2 -2.3 0 -3.5 -0.5 -3.5 -1.4z"/>
  <path d="M35 351.2 c0 -1.5 5 -15.6 5.8 -16.4 0.5 -0.5 2.6 -0.1 4.7 0.8 4.5 1.9 10.7 1.4 13.4 -1 2.1 -1.9 4.3 -2.1 4 -0.3 -0.4 3.5 0 3.7 10.5 3.7 7.3 0 10.7 -0.4 11.4 -1.3 1.7 -2 -0.4 -8.6 -3.8 -12.2 -1.6 -1.6 -3.6 -4.7 -4.5 -6.9 -1.9 -4.5 -3 -4 -5.5 2.6 -1.6 4.5 -4.9 6.9 -3.6 2.7 1.5 -4.7 1.9 -21.7 0.7 -26.5 -1.5 -5.9 -6.5 -13.6 -10.2 -15.8 -2.8 -1.7 -3 -1.6 -7.6 1.5 -2.7 1.8 -6.2 4.5 -8 6.2 -2.7 2.5 -3.3 2.8 -3.8 1.5 -0.8 -2.1 1.9 -7.4 4.8 -9.2 3.4 -2.2 20.3 -4.9 22.7 -3.6 2.2 1.2 6.6 9.8 7.6 14.8 0.4 1.8 1 3.5 1.4 3.7 1.6 1 3.4 -2.8 3.1 -7 -0.2 -3.9 0.2 -4.6 4.5 -8.4 2.6 -2.2 5.4 -4.1 6.3 -4.1 0.9 0 4.5 -0.7 8.1 -1.6 9.7 -2.5 12.6 -1.6 19.9 6.2 3.4 3.5 6.1 7.1 6.1 7.8 0 0.8 0.7 1.9 1.5 2.6 1.2 1 1.6 0.8 2.4 -1.2 2.6 -6.9 12 -13.1 21.7 -14.5 9.9 -1.3 14.9 5 17.9 22.4 0.6 3.8 0.4 4.6 -2.2 7.1 -3.4 3.4 -18 9.2 -23.2 9.2 -4.9 0 -12.2 -2.2 -15.9 -4.9 -3.9 -2.7 -4.2 -2.7 -4.2 0.9 0 3.8 -2.1 8.1 -6.7 13.8 -3.2 3.9 -3.8 7.2 -1.4 7.2 0.5 0 4.2 -1.5 8.2 -3.2 l7.4 -3.3 29.3 -0.1 c16.1 -0.1 29.6 -0.5 30 -0.8 0.3 -0.4 -2.4 -3.7 -6 -7.4 -8.2 -8.4 -11.8 -13.8 -11.8 -17.7 0 -1.6 -0.9 -6.3 -1.9 -10.2 -1 -4 -1.6 -7.3 -1.4 -7.3 0.2 0 1.3 2.1 2.6 4.8 1.7 3.5 2.8 4.7 4.4 4.6 1.8 0 2.3 0.7 2.8 3.7 0.4 2.4 2.5 5.9 5.9 10 4.2 5.2 6.7 7.1 13.1 10.2 13.2 6.5 21.9 4.8 31.9 -6.3 7.1 -7.8 8.1 -12.4 5.3 -23.8 -1.9 -8.2 -4.5 -10.8 -13 -13.4 -13.9 -4.2 -27.1 -0.8 -37.1 9.6 l-5.9 6.1 0.8 -4 c1.2 -6.7 3.2 -10.4 7 -12.6 3.9 -2.4 4.1 -4.5 0.4 -4.3 -1.3 0.1 -12.4 0.7 -24.7 1.4 -12.2 0.7 -23.2 1 -24.5 0.7 -1.2 -0.4 -4.8 -0.2 -8.1 0.2 -3.2 0.4 -7.2 0.5 -9 0.1 l-3.1 -0.7 2.5 -1 c2.6 -1.1 22.4 -4.1 44.5 -6.8 6.6 -0.8 17.2 -2.2 23.5 -3.1 8.4 -1.1 22 -1.7 50 -1.9 21.2 -0.2 43.9 -0.8 50.5 -1.4 7.5 -0.7 23.3 -0.9 42.5 -0.4 20.7 0.4 36.6 0.2 49.5 -0.7 14.1 -0.9 21.3 -1 27.7 -0.2 6.3 0.8 11.1 0.8 17.5 0 5.8 -0.8 27.5 -1.1 64.6 -0.9 53.9 0.2 56.2 0.3 71 2.7 17.7 2.9 27.3 4 45.2 5.3 10.2 0.7 14.2 1.5 18.5 3.4 7.9 3.5 8.7 4.7 6.1 9.9 -5.3 11.2 -6.5 24.9 -3.2 39 1.1 4.6 2.3 9.1 2.7 10.1 0.6 1.8 0.4 1.7 -3.4 -0.2 -6.1 -3.1 -7.5 -5.6 -5.7 -10.7 1 -2.9 1.2 -6.7 0.8 -13.8 -0.6 -9 -0.9 -10.2 -3.7 -13.9 -1.7 -2.2 -4.3 -4.9 -5.8 -6 -2.6 -2 -2.7 -2 -6 0 -4.7 2.7 -5.8 5.6 -5.8 15.4 0 7.1 0.4 9.3 2.5 13.6 1.4 2.7 4.1 6.4 6 8.2 4.1 3.7 4.2 4.5 1.4 6.5 -3.2 2.2 -1.7 4.4 3.3 4.9 6.9 0.8 16.8 0.6 16.8 -0.4 0 -0.4 0.7 -0.6 1.5 -0.3 0.8 0.4 1.5 1.5 1.5 2.6 0 1.1 0.8 2.2 2 2.5 3.8 1 1 9.3 -3.2 9.3 -0.7 0 -4.2 -0.6 -7.8 -1.4 -6.7 -1.6 -22 -3.7 -39.8 -5.6 -27.8 -3 -48 -5 -61.2 -6 -8 -0.6 -18.3 -1.8 -23 -2.6 -14.4 -2.5 -30.9 -3.4 -71.4 -3.9 -21.4 -0.3 -39.4 -0.9 -40 -1.4 -0.6 -0.5 -8.6 -0.5 -18.6 0 -9.6 0.4 -29.6 1.3 -44.5 1.9 -14.8 0.6 -38.2 1.8 -52 2.7 -13.7 0.9 -34 1.7 -45 1.8 -13.1 0.2 -23.3 0.8 -29.5 1.9 -5.2 0.9 -13 1.6 -17.3 1.6 -18.8 0 -79.7 9.8 -103.1 16.6 -4.8 1.4 -12.3 2.9 -16.5 3.4 -4.2 0.5 -11.1 1.6 -15.4 2.5 -9 1.7 -10.7 1.8 -10.7 0.7z m13.4 -5.2 c3.5 -1.3 3.3 -4.2 -0.3 -6.3 -1.6 -0.9 -3.3 -1.7 -3.8 -1.7 -1.2 0 -3.4 7 -2.7 8.2 0.7 1.1 3.7 1 6.8 -0.2z m45.8 -19.4 c4.8 -2 13.4 -11.6 16.5 -18.2 2 -4.4 2.5 -7.2 2.6 -13.7 0.1 -10.2 -1.7 -13.9 -8.2 -16.8 -10.2 -4.5 -18 -0.9 -23.9 11.1 -3.3 6.8 -3.6 8.3 -3.7 16 0 9.5 1.1 12.3 7.2 19.1 3.9 4.3 4.6 4.5 9.5 2.5z m174.1 -7.3 c1.6 -0.9 0.5 -2.2 -2.5 -2.8 -4.9 -1.1 -9.9 -4.7 -16 -11.4 -3 -3.4 -6 -6.1 -6.6 -6.1 -0.6 0 -2.3 2.6 -3.7 5.9 -1.5 3.2 -4.4 7.5 -6.5 9.6 -6.6 6.4 -5.5 6.8 15.9 6 10.2 -0.4 18.9 -0.9 19.4 -1.2z m327.5 -0.4 c8.2 1.2 9.8 0.7 8.9 -3.1 -0.9 -3.5 -9.7 -16.8 -11.1 -16.8 -0.7 0 -2.1 1 -3.2 2.1 -1 1.2 -5.2 4.7 -9.2 7.7 l-7.4 5.4 -6.5 -0.4 c-6.9 -0.4 -8 -1.2 -13.4 -8.9 l-1.6 -2.3 -3.3 2.7 c-5.9 5 -7.6 5.4 -19.5 4.8 l-11 -0.6 -2.4 -6.2 c-3 -7.7 -4.9 -8.1 -8.3 -2 -1.4 2.5 -4.3 5.5 -7.3 7.4 -9.5 6.2 -9.7 6.3 -8.4 7.9 1.5 1.9 8.7 1.8 21.3 -0.2 9.5 -1.6 11.6 -1.6 30.6 0 11.3 0.9 23.2 2 26.5 2.4 3.3 0.4 8.6 0.3 11.9 -0.2 3.9 -0.6 8.4 -0.5 13.4 0.3z m-237.3 -2.9 c1.5 -0.6 5.3 -3 8.4 -5.5 3.2 -2.5 6 -4.5 6.4 -4.5 0.4 0 0.2 1.2 -0.3 2.6 -0.6 1.4 -1 2.9 -1 3.3 0 0.4 7.5 1.1 16.8 1.4 9.2 0.3 21 1.1 26.2 1.7 5.2 0.6 16.5 1 25 0.8 12.9 -0.2 15.5 -0.6 15.8 -1.8 0.1 -0.9 -1.2 -2.4 -3 -3.5 -1.8 -1 -5.9 -4.3 -9 -7.3 -5.1 -4.9 -5.8 -6 -5.8 -9.4 0 -3.5 -0.2 -3.9 -2.2 -3.6 -1.5 0.2 -2.9 1.6 -4.1 4.1 -1.3 2.9 -3 4.4 -7.5 6.5 -9.4 4.6 -14.6 5.7 -19.5 4.2 -10.2 -3 -19.6 -9.7 -23.5 -16.6 -1.6 -2.8 -3 -0.8 -4.1 5.6 -0.8 5.2 -0.9 5.3 -1 1.5 -0.2 -6.1 -2.9 -19.2 -4.7 -22.6 -0.9 -1.7 -3.4 -5.2 -5.7 -7.7 l-4.2 -4.5 4 2.1 c5.1 2.6 8.6 6.4 12 13 1.5 2.8 3.1 5.2 3.6 5.2 0.5 0 2.3 -1.5 3.9 -3.3 8.7 -9.9 35 -16.1 42.5 -10.1 1.3 1 3.9 3.2 5.9 4.8 l3.6 2.8 6 -5 c3.3 -2.8 8.7 -6.7 12.1 -8.7 3.3 -2.1 5.8 -4.2 5.6 -4.8 -0.2 -0.7 -15.8 -1 -49.7 -0.9 -49.6 0.2 -52.3 0.4 -50.3 3.6 0.4 0.6 -0.1 0.6 -1.3 0.1 -8.1 -3.4 -10.3 -3.9 -12.6 -2.8 -1.3 0.6 -4.9 1.7 -8.2 2.4 -7.8 1.7 -11.2 4.2 -15.6 11.4 -10.5 17.1 -6.4 33.9 10 41.3 11.3 5.1 19.6 6.4 25.5 4.2z m-50.6 -1.5 c7.3 -0.2 13.6 -0.7 13.9 -1 0.4 -0.3 -1.2 -2.3 -3.5 -4.3 -5 -4.6 -6.6 -7.2 -8.9 -14.7 -1 -3.3 -2.4 -6.7 -3.1 -7.5 -1.3 -1.3 -1.6 -1.3 -2.9 0.5 -0.8 1.1 -2.5 5.3 -3.7 9.4 -1.6 5.6 -3.3 8.6 -6.4 12.2 -5.1 5.5 -5.5 7.4 -1.5 6.5 1.5 -0.3 8.7 -0.8 16.1 -1.1z m-20.8 -4 c4.9 -4.6 6.9 -9.9 6.9 -18.4 0 -11.7 -4.4 -17.8 -14.6 -20.1 -3.4 -0.8 -6.2 -0.8 -10.2 0.1 -7.4 1.5 -14.2 8.1 -16.7 16.1 -1.7 5.2 -1.7 5.6 0 9.1 2.5 5.4 8.9 12.2 13.7 14.6 3.4 1.8 5.7 2.1 11 1.9 5.8 -0.3 7.1 -0.8 9.9 -3.3z m207.5 -2.1 c7.8 -5 11.9 -15.1 10.3 -25.2 -0.9 -5.9 -1.8 -7.9 -5.1 -11 -5.3 -4.9 -23.7 -8.9 -32.9 -7.2 -11 2.1 -16.8 7.3 -19.1 17 -0.9 4.2 -0.8 5.6 0.7 9.7 2.7 7.1 4.3 8.9 12 13.6 7.3 4.3 11.3 5.3 23.5 5.6 5.5 0.1 7.2 -0.3 10.6 -2.5z m-342.1 -1.6 c5.1 -3.6 6 -5.7 5.3 -12.9 -0.4 -4 -1.2 -5.8 -3.7 -8.2 -2.6 -2.7 -3.8 -3.2 -7.5 -3 -4.8 0.2 -11.1 2.9 -14 6.2 -2.5 2.7 -3.5 13.3 -1.5 15.7 2.3 2.7 8.3 5.3 12.6 5.4 3.2 0 5.4 -0.8 8.8 -3.2z m422.5 -0.6 c5.1 -3.1 13 -14.8 13 -19.2 0 -5.4 -6.5 -19.2 -9.6 -20.4 -2.8 -1.1 -8.8 1.3 -13.2 5.1 -4.1 3.7 -4.3 4.1 -5.3 12 -1.3 9.5 0.2 21.6 2.9 24.6 2.1 2.4 6 1.7 12.2 -2.1z m-34.2 -2.5 c5.6 -5.6 6 -14.9 1.1 -22.1 -2.8 -4.2 -6.8 -6.1 -12.2 -5.9 -7.3 0.3 -11.9 5.3 -12 13.1 -0.1 5.5 1.7 9.1 7.3 15.1 3.8 4.1 4.3 4.3 8.2 3.8 2.9 -0.4 5.1 -1.6 7.6 -4z m-123.1 -5 c6 -3.1 10.3 -10.8 10.3 -18.3 0 -6.7 -10.3 -10.6 -22.5 -8.5 -7.8 1.4 -11 2.8 -14.5 6.5 -4.4 4.8 -2.4 14.1 4.1 18.7 5.4 3.8 16.7 4.6 22.6 1.6z m137.3 -7.6 c0 -4.4 -1.3 -6.6 -3.3 -5.8 -1.5 0.6 -1.5 4.9 -0.2 9.4 0.9 2.8 3.5 0 3.5 -3.6z m-306.3 -11.6 c2.9 -8.4 10.4 -12.6 23.9 -13.3 13.3 -0.7 19.3 2 25 11 3.1 4.9 5 4.9 6.4 0 1.8 -6.9 6 -11.4 13 -14.3 12.7 -5.2 11.9 -5.3 -44 -4.6 -36.4 0.5 -51.6 1 -52.6 1.8 -2.2 1.8 -1.6 3.8 1.4 4.5 7.9 1.9 12.7 5.7 20.5 15.8 1.6 2.1 3.4 3.5 4 3.3 0.6 -0.2 1.6 -2.1 2.4 -4.2z m346.5 -0.3 c4.7 -4.1 12 -6.7 14.6 -5.3 1.1 0.6 2.8 1.1 3.7 1.1 1.6 0 8.5 -6.5 8.5 -8.1 0 -1.2 -9.8 -3 -18.4 -3.4 -4.3 -0.2 -10.7 -0.9 -14.3 -1.6 -8.7 -1.8 -9.2 -1 -4.8 8.2 1.9 4 3.5 8.4 3.5 9.6 0 3.2 3.1 3 7.2 -0.5z m-40.3 -3.5 c2.9 -4.3 7.8 -9 11.7 -11.3 3.6 -2.2 0 -3.2 -16.1 -4.4 -8.8 -0.6 -20.9 -1.5 -27 -2 -13.1 -1 -30.1 -1.2 -33.3 -0.4 -3.4 0.9 -2.2 2.6 3.3 4.6 5.7 2 11.1 6.1 14.3 10.9 1.3 1.9 2.8 3.6 3.3 3.8 0.6 0.2 3.7 -1.1 6.9 -2.8 7.7 -4.1 13.8 -4.8 21.5 -2.4 4.6 1.4 6.5 2.6 8 5.1 1.1 1.7 2.5 3.1 3.2 3.2 0.7 0 2.5 -2 4.2 -4.3z"/>
  <path d="M86.3 320.8 c-1.1 -1.3 -2.4 -3 -2.8 -3.8 -0.8 -1.6 -0.6 -1.4 3.4 3.3 1.4 1.5 2.2 2.7 1.9 2.7 -0.2 0 -1.4 -1 -2.5 -2.2z"/>
  <path d="M99 317.5 c1.9 -1.9 3.6 -3.5 3.9 -3.5 0.3 0 -1 1.6 -2.9 3.5 -1.9 1.9 -3.6 3.5 -3.9 3.5 -0.3 0 1 -1.6 2.9 -3.5z"/>
  <path d="M86.9 285.3 c0.6 -1.3 2 -2.7 3.1 -3.3 2.7 -1.5 2.5 -1 -1.2 2.5 -2.5 2.4 -2.9 2.5 -1.9 0.8z"/>
  <path d="M107.4 284.6 c-0.4 -1 -2.4 -2.4 -4.6 -3.3 -2.1 -0.8 -3.7 -1.7 -3.5 -1.9 0.2 -0.2 2.2 0.3 4.5 1.2 3.7 1.5 6 3.9 4.7 5.2 -0.2 0.3 -0.7 -0.3 -1.1 -1.2z"/>
  <path d="M286.1 305.5 c0.9 -1.1 2.1 -2.9 2.7 -4 0.6 -1.1 1.2 -1.4 1.2 -0.8 0 0.7 -1.2 2.5 -2.7 4.1 -1.6 1.5 -2.1 1.9 -1.2 0.7z"/>
  <path d="M261.4 303.8 l-2.9 -3.3 3.3 2.9 c3 2.8 3.7 3.6 2.9 3.6 -0.2 0 -1.6 -1.5 -3.3 -3.2z"/>
  <path d="M288 282.4 c-2.1 -3.7 -6.4 -6.5 -11.8 -7.4 -4.2 -0.7 -4.3 -0.8 -1.3 -0.9 4.7 -0.1 11.3 3.2 13.5 6.9 1 1.7 1.6 3.3 1.4 3.6 -0.3 0.2 -1.1 -0.8 -1.8 -2.2z"/>
  <path d="M261 280.7 c1.4 -1.6 3.4 -3.3 4.5 -3.9 2.1 -1.1 2 -1 -3.5 3.7 l-3.5 3 2.5 -2.8z"/>
  <path d="M137.6 304.8 c-1 -0.6 -1.6 -2.3 -1.6 -4.8 0 -4 0 -4 3.8 -4 5.1 0 6.4 1.1 6 5.1 -0.3 2.8 -0.8 3.4 -3.4 4 -1.8 0.3 -3.9 0.2 -4.8 -0.3z"/>
  <path d="M148.5 304.5 c1.1 -0.9 2.9 -2.1 4 -2.6 l2 -1 -2 1.6 c-1.1 0.9 -2.9 2.1 -4 2.6 l-2 1 2 -1.6z"/>
  <path d="M26.4 345.6 c1.7 -1.9 3.2 -3.3 3.5 -3 0.5 0.5 -4.9 6.4 -5.9 6.4 -0.4 0 0.7 -1.6 2.4 -3.4z"/>
  <path d="M16.6 340.9 c-1.4 -7 -1.1 -7.6 4.7 -8.3 8.7 -1 8.7 -1 8.7 2.9 0 2.8 -0.4 3.5 -2 3.5 -1.5 0 -2 0.7 -2 2.5 0 2.3 -0.4 2.5 -4.4 2.5 -4.1 0 -4.4 -0.2 -5 -3.1z"/>
  <path d="M200 313 c-1.9 -1.1 -3 -1.9 -2.5 -1.9 0.6 0 2.6 0.8 4.5 1.9 1.9 1.1 3.1 1.9 2.5 1.9 -0.5 0 -2.6 -0.8 -4.5 -1.9z"/>
  <path d="M216 312.3 c1.4 -1 4.5 -3.6 7 -5.8 l4.5 -3.9 -3.7 4 c-2.1 2.2 -5.2 4.7 -7 5.7 -3.2 1.7 -3.2 1.7 -0.8 0z"/>
  <path d="M186.6 304 c-3.2 -3.6 -4.2 -5 -3.3 -5 0.1 0 2 2 4 4.5 4.7 5.6 4.2 5.9 -0.7 0.5z"/>
  <path d="M31.1 294.5 c-1.7 -3 -3.6 -5.5 -4.1 -5.5 -0.6 0 -1 -0.7 -1 -1.5 0 -2.8 3.5 -1.5 6.8 2.5 3.1 3.7 4.2 8.3 2.3 9.4 -0.5 0.3 -2.3 -1.9 -4 -4.9z"/>
  <path d="M46.7 288.9 c1.2 -1.5 7.3 -5.3 7.3 -4.6 0 0.2 -1.9 1.7 -4.2 3.2 -2.4 1.6 -3.8 2.2 -3.1 1.4z"/>
  <path d="M181.7 286.5 c1.2 -1.6 3.6 -4.3 5.4 -6 2.5 -2.2 2.2 -1.7 -1 2 -5.9 6.7 -6.8 7.5 -4.4 4z"/>
  <path d="M611.4 283.4 c-2.2 -2.4 -3.5 -4.4 -2.9 -4.4 1.4 0 4.8 3.6 6.4 6.8 1.6 3 1.3 2.8 -3.5 -2.4z"/>
  <path d="M195 275 c1.9 -1.1 4.2 -1.9 5 -1.9 0.8 0 -0.3 0.9 -2.5 1.9 -5.3 2.4 -7 2.4 -2.5 0z"/>
  <path d="M33.5 275 c-0.7 -1.1 2.5 -8.4 3.3 -7.6 0.7 0.8 -0.7 7.4 -1.8 8.1 -0.5 0.3 -1.1 0.1 -1.5 -0.5z"/>
  <path d="M484.7 246.4 c-0.4 -0.4 -10.7 -0.9 -22.9 -1.3 l-22.3 -0.6 -0.7 -9 c-1.2 -14.1 -6.8 -39.9 -11.9 -55 -1.2 -3.3 -2.7 -8.5 -3.5 -11.5 -0.8 -3 -2.5 -8 -3.9 -11.1 -1.4 -3.2 -2.8 -9 -3.4 -13.7 -0.5 -4.5 -1.3 -8.8 -1.9 -9.5 -0.5 -0.6 -1.3 -3.2 -1.7 -5.7 -0.4 -2.5 -2 -7.9 -3.5 -12 -10.1 -27.3 -17.9 -43.1 -27.4 -56 -8.7 -11.6 -26 -29.9 -37.6 -39.8 -5.8 -4.9 -11.2 -9.7 -12 -10.7 -1.4 -1.7 -1.3 -1.8 2.3 -1.2 2.2 0.3 4.6 1.2 5.4 1.9 3.2 2.6 19 8.1 25.8 8.9 3.9 0.4 10.8 0.8 15.5 0.9 7 0.1 8.2 0.3 6.6 1.3 -7.9 5.1 -8.1 5.3 -8 8.9 0.1 4.3 4.6 10.3 8.6 11.7 1.6 0.6 2.8 1.4 2.8 2 0 0.5 0.7 1.7 1.6 2.5 1.3 1.3 1.4 2.2 0.5 4.8 -1.4 3.9 -1.4 8.4 -0.1 10.8 1.5 2.8 12.1 9.5 19.7 12.4 7.4 2.8 17.4 3.7 25.6 2.3 4 -0.7 4.7 -0.6 4.7 0.8 0 0.8 -0.8 1.8 -1.7 2.1 -1 0.3 -2.8 1.1 -4 1.6 -1.2 0.6 -2.9 0.8 -3.7 0.5 -0.8 -0.3 -1.8 -0.1 -2.2 0.4 -0.3 0.6 -1.8 0.8 -3.3 0.4 -1.4 -0.4 -5.2 -0.8 -8.4 -1 -3.7 -0.2 -6.4 -0.9 -7.7 -2 -1.5 -1.3 -2.3 -1.4 -3.9 -0.5 -1.7 0.9 -2.2 0.8 -2.7 -0.5 -0.3 -0.8 -1 -1.2 -1.5 -1 -0.5 0.3 -1.9 -0.1 -3.3 -1 -3.6 -2.4 -4.3 0 -0.9 3.1 4.8 4.5 10.9 6.5 21.3 7.1 8.5 0.5 10.3 0.3 17.1 -2.1 4.1 -1.4 7.8 -2.6 8 -2.6 0.2 0 1.3 1.7 2.2 3.8 1 2 2.9 5.7 4.3 8.2 7.5 13.7 16.6 36.1 15.3 37.5 -0.4 0.3 -1.9 0.1 -3.4 -0.5 -1.5 -0.6 -7.1 -1.2 -12.4 -1.3 -8.5 -0.2 -10 0.1 -13.1 2.1 -6.9 4.4 -9.1 6.8 -9.7 10.5 -0.7 4.6 1.3 5.1 2.8 0.7 0.6 -1.6 1.8 -3 2.6 -3 0.8 0 2.4 -1.2 3.5 -2.6 1.7 -2.1 2.6 -2.5 5.4 -2 1.9 0.4 3.5 0.2 3.9 -0.4 0.4 -0.6 1.5 -0.8 2.5 -0.5 1 0.3 2.1 0.1 2.5 -0.5 0.9 -1.4 4.7 -1.2 6.9 0.5 1.1 0.8 2.9 1.2 4.2 0.9 2.3 -0.6 8.4 2 8.4 3.6 0 0.5 1.5 1.6 3.3 2.4 1.7 0.7 4.9 3.1 7 5.3 3 3.2 3.9 5.1 4.7 9.9 1.1 6.4 0.8 8.7 -2.2 18.2 -1.6 5.2 -2.8 6.9 -6.1 9.3 -2.2 1.6 -4.9 2.9 -6 2.9 -4.1 0 -14.6 -2.4 -14.1 -3.2 0.3 -0.4 -1.9 -0.8 -4.8 -0.8 -5.8 0 -8.2 -1.2 -14.2 -7.2 -3.3 -3.4 -6.6 -4.9 -6.6 -3.2 0 0.4 2 3.1 4.5 6 3.6 4.2 5.8 5.7 11.4 7.8 8.3 3.2 18.2 5 23.6 4.1 2.2 -0.3 5.7 -1.9 7.7 -3.5 2 -1.7 4.1 -3 4.7 -3 1.4 0 2.9 5.3 5.6 20.6 1.4 7.6 2.9 15.3 3.5 16.9 1.4 4.4 3 18.8 2.4 21.2 -0.4 1.4 -1.7 2.2 -4.2 2.7 -4.8 0.8 -6.7 0.8 -7.5 0z m-1.6 -8.1 c3.6 -3 6.2 -8.4 5.3 -10.8 -1 -2.5 -2.6 -1.3 -4.1 3 -1.7 4.9 -3.1 6.5 -7 8.2 -4.1 1.6 -4.2 2.3 -0.4 2.3 1.7 0 4.3 -1.1 6.2 -2.7z m-20.7 -1.8 c-2.1 -1.9 -4.5 -3.4 -5.1 -3.5 -0.7 0 -1.3 -1 -1.3 -2.2 0 -1.2 -0.7 -2.9 -1.6 -3.9 -1.1 -1.2 -1.7 -4 -1.9 -8 -0.2 -6.1 -0.1 -6.4 3.4 -9.6 4 -3.7 2.5 -4.5 -2.6 -1.3 -2.3 1.4 -3.5 3.1 -4.3 6.2 -1.5 5.3 -0.8 9.6 2.5 16.4 2 4 3.5 5.7 6.8 7.3 6.9 3.3 8.7 2.7 4.1 -1.4z m16.6 -3 c3.4 -1.8 4.1 -3.7 4.1 -11.1 0 -6 -1.5 -9.3 -5.6 -12 -5.9 -3.8 -15.6 -2.3 -19.1 3.1 -1.6 2.4 -1.6 2.9 0 8.9 1.7 6.1 4.9 10.5 8.6 11.9 3 1.1 9.2 0.7 12 -0.8z m10 -15.7 c0 -6.8 -7.6 -13.7 -16 -14.5 -4.2 -0.4 -4.4 -0.3 -2.6 1.1 1.1 0.9 3.3 1.8 5 2.2 5.5 1 8.9 5.1 10.1 12.4 0.7 4 0.9 4.2 2.1 2.5 0.8 -1 1.4 -2.7 1.4 -3.7z m-13.3 -35.7 c6.3 -2.9 7.8 -5.9 7.8 -16.1 0 -7.7 -0.3 -8.9 -3.1 -13.5 -2.5 -4.2 -4.3 -5.6 -10.5 -8.7 -5.7 -2.9 -8.6 -3.8 -12.5 -3.8 -8.6 0 -15.5 1.8 -18.6 4.7 -2.6 2.4 -2.8 3.3 -2.8 9.9 0 15.2 6.6 22.3 25.2 27.3 9.1 2.5 9.4 2.5 14.5 0.2z m-24.3 -58.1 c3 -1.1 5.3 -4.4 6.2 -8.9 0.9 -4.3 -1.5 -3.9 -2.9 0.5 -0.5 1.6 -1.4 3.5 -2 4.2 -1.1 1.4 -8.5 1.6 -10.7 0.2 -0.8 -0.5 -1.9 -0.5 -2.5 0 -1.5 1.2 -9.4 -0.6 -12.7 -3 -1.6 -1.2 -2.9 -1.6 -3.3 -1 -0.9 1.5 0.3 2.9 5.3 6.1 4 2.6 5.5 2.9 12.3 2.9 4.3 0 8.9 -0.4 10.3 -1z m-0.5 -7.9 c2.1 -1.6 2.3 -2.4 1.8 -6.6 -0.8 -5.5 -5.5 -12.2 -9.4 -13.1 -1.3 -0.4 -4.7 -0.4 -7.5 -0.1 -5.9 0.7 -9.2 3.3 -10.9 8.4 -1.3 4.1 0.4 7.4 4.8 9.1 11.9 4.5 17.6 5.1 21.2 2.3z m-71.6 -76 c-0.3 -1.1 -1.6 -3 -3 -4.2 l-2.4 -2.4 1.1 3 c0.6 1.7 1.8 3.6 2.7 4.3 2.2 1.6 2.2 1.5 1.6 -0.7z m-3.8 -12.4 c3 -2.3 0.9 -3.9 -4.9 -3.6 -2.8 0.2 -6.1 -0.2 -7.3 -0.9 -2.4 -1.3 -9.3 -1.6 -9.3 -0.4 0 1 5.4 4.2 8.8 5.2 4.3 1.3 10.7 1.1 12.7 -0.3z"/>
  <path d="M45 216.6 c0 -0.8 0.5 -1.8 1 -2.1 0.6 -0.3 1 0.1 1 0.9 0 0.8 -0.4 1.8 -1 2.1 -0.5 0.3 -1 -0.1 -1 -0.9z"/>
  <path d="M62 175.8 c0 -2.6 1.6 -5.5 2.5 -4.7 0.8 0.8 -0.6 6.9 -1.6 6.9 -0.5 0 -0.9 -1 -0.9 -2.2z"/>
  <path d="M67.8 169.5 c-0.6 -5.6 -0.4 -6.3 2.9 -11.2 2.2 -3.2 4 -5 4.9 -4.6 1.9 0.7 1.8 1 -1.9 9.4 -1.9 4.1 -3.8 8.5 -4.4 9.9 -0.9 2.2 -1.1 1.8 -1.5 -3.5z"/>
  <path d="M75 149.2 c0 -1 0.7 -2.7 1.5 -3.8 1.6 -2.1 2 -0.8 0.9 3.4 -0.8 2.6 -2.4 2.9 -2.4 0.4z"/>
  <path d="M486 146.7 l-2.3 -3.2 2.9 2.7 c1.5 1.5 2.6 3 2.3 3.3 -0.3 0.2 -1.6 -1 -2.9 -2.8z"/>
  <path d="M80 141.6 c-1.1 -2.2 -0.9 -3 1.7 -7.3 2.6 -4.2 3.4 -4.8 6.7 -5.1 3.5 -0.3 3.7 -0.2 3.1 2 -0.8 2.6 -8.3 12.8 -9.5 12.8 -0.3 0 -1.2 -1.1 -2 -2.4z"/>
  <path d="M88 125.1 c0 -0.5 2 -1.6 4.5 -2.4 5.6 -1.9 5.8 -1.4 0.5 1.3 -4.4 2.3 -5 2.4 -5 1.1z"/>
  <path d="M127 83.7 c0 -1.2 2.9 -3.8 6.7 -6.1 2.7 -1.6 0 2.4 -3.3 4.9 -2.3 1.7 -3.4 2.1 -3.4 1.2z"/>
  <path d="M407 43.1 c0 -0.5 0.7 -1.4 1.6 -2.1 2.7 -2.3 3.6 -4.8 2.4 -7 -0.9 -1.6 -0.8 -1.8 0.5 -1.4 1.7 0.7 8.5 9.1 8.5 10.5 0 0.5 -2.9 0.9 -6.5 0.9 -3.6 0 -6.5 -0.4 -6.5 -0.9z"/>
  <path d="M397.5 22.9 c-1.2 -1.9 0.5 -2.3 2.2 -0.6 1.6 1.6 1.6 1.7 0.1 1.7 -0.9 0 -2 -0.5 -2.3 -1.1z"/>
  <path d="M374.6 9.4 c-0.4 -1.1 -0.1 -1.4 1.1 -1.2 0.9 0.2 1.8 0.9 2.1 1.6 0.6 1.8 -2.5 1.5 -3.2 -0.4z"/>
 </g>
 <g fill="#f5c02d">
  <path d="M457.7 424.3 c-1 -1 -0.8 -4.3 0.2 -4.3 0.6 0 1.3 0.5 1.6 1 0.5 0.8 1.1 0.8 1.9 0.1 1.8 -1.5 2.7 -0.2 1.5 2 -1 1.9 -3.9 2.5 -5.2 1.2z"/>
  <path d="M470 375.7 c0 -0.7 1.3 -2.6 3 -4.2 2.7 -2.6 3 -3.4 2.7 -8.4 -0.2 -5.4 -0.1 -5.6 2.5 -5.9 2.2 -0.3 2.9 0.2 3.4 2.3 0.9 3.8 -2.3 13.1 -5.3 15.5 -2.9 2.3 -6.3 2.6 -6.3 0.7z m9.1 -16 c-1.8 -1.8 -2.5 0.2 -1 3 1.4 2.6 1.4 2.6 1.7 0.4 0.2 -1.3 -0.1 -2.8 -0.7 -3.4z"/>
  <path d="M15.7 342.3 c-0.4 -0.3 -0.7 -1.6 -0.7 -2.9 0 -1.3 -0.8 -2.4 -2.1 -2.7 -1.7 -0.5 -2 -1.2 -1.7 -5.4 l0.3 -4.8 9.5 0 9.5 0 0.3 5.8 c0.4 8.7 -1.2 10.7 -8.7 10.7 -3.2 0 -6.1 -0.3 -6.4 -0.7z m7.3 -2.3 c0 -0.5 -0.7 -1 -1.5 -1 -0.8 0 -1.5 0.5 -1.5 1 0 0.6 0.7 1 1.5 1 0.8 0 1.5 -0.4 1.5 -1z"/>
  <path d="M43.4 327.7 c-0.3 -0.8 -0.4 -3.2 -0.2 -5.3 l0.3 -3.9 7 0 7 0 0 5 0 5 -6.8 0.3 c-5.1 0.2 -6.9 0 -7.3 -1.1z"/>
  <path d="M631 304 c0 -2.7 -0.4 -5 -1 -5 -1.1 0 -1.4 -6.9 -0.4 -9.4 0.7 -1.9 7.4 -2.2 9.2 -0.4 1.4 1.4 1.6 8.8 0.2 8.8 -0.5 0 -1 2.5 -1 5.5 l0 5.5 -3.5 0 -3.5 0 0 -5z"/>
  <path d="M603.5 300.6 c-1.2 -6.3 -0.4 -8.1 3.8 -8.4 3.1 -0.3 3.7 0 3.7 1.7 0 1.1 0.5 2.3 1 2.6 0.6 0.3 1 2.2 1 4.1 0 3.4 0 3.4 -4.5 3.4 -4.2 0 -4.4 -0.1 -5 -3.4z"/>
  <path d="M275.7 302.3 c-1.3 -1.2 -0.7 -8 0.7 -9.2 0.8 -0.7 3.2 -1.1 5.3 -0.9 l3.8 0.3 0.3 5.3 0.3 5.2 -4.9 0 c-2.7 0 -5.2 -0.3 -5.5 -0.7z"/>
  <path d="M96 296.8 c-2 -4.3 -2.5 -9.3 -1.4 -12.2 0.4 -1.1 1.9 -1.6 5.1 -1.6 4.1 0 4.5 0.2 5.9 3.6 0.9 2.1 1.4 5.7 1.2 8.7 l-0.3 5.2 -4.3 0.3 c-4.1 0.3 -4.3 0.2 -6.2 -4z"/>
  <path d="M478.4 297.9 c-1.2 -2 1.4 -3.5 3.7 -2.1 1.8 1.1 2.4 1.1 4 -0.4 2 -1.8 2.6 -4.4 1 -4.4 -0.5 0 -1.4 0.7 -2.1 1.5 -2 2.4 -2.3 1.1 -0.6 -2.9 1.7 -4 4 -4.6 5.7 -1.5 0.9 1.7 0.7 2.8 -0.7 5.4 -2.2 4.2 -9.3 7 -11 4.4z"/>
  <path d="M362.7 296.4 c-1.5 -1.5 -0.7 -4.5 1.1 -4.2 0.9 0.2 1.7 1.2 1.7 2.2 0 2 -1.6 3.1 -2.8 2z"/>
  <path d="M571.5 295 c-0.9 -1.4 1.3 -5 3 -5 1.8 0 2 3.1 0.3 4.8 -1.5 1.5 -2.5 1.5 -3.3 0.2z"/>
  <path d="M212.2 287.5 c-2.6 -3.6 -3.3 -5.4 -3 -8.3 0.3 -4.1 2.1 -4.9 8.4 -3.8 2.6 0.5 3.7 1.5 5.4 4.9 1.3 2.6 2 5.7 1.8 7.8 -0.3 3.3 -0.5 3.4 -4.8 3.6 -4.3 0.3 -4.7 0.1 -7.8 -4.2z"/>
  <path d="M477 284.5 c-0.7 -0.8 -1 -2.2 -0.6 -3 0.6 -1.7 4.6 -2.1 4.6 -0.5 0 0.6 -0.6 1 -1.4 1 -0.9 0 -1.2 0.7 -0.9 2 0.6 2.4 0 2.6 -1.7 0.5z"/>
  <path d="M351.7 278.5 c-2.1 -2.5 -3.6 -4.5 -3.3 -4.5 1.8 0 5.7 2.6 6.1 4.2 0.4 1 1.1 1.8 1.6 1.8 0.5 0 0.9 0.7 0.9 1.5 0 2.4 -1.3 1.7 -5.3 -3z"/>
  <path d="M358.2 274.9 c0.2 -1.9 -0.5 -2.8 -3.4 -4.2 -4.1 -2 -7.8 -1.1 -7.8 1.9 0 2.3 -2.4 1.1 -2.8 -1.3 -0.3 -2.3 2 -3.3 7.6 -3.3 2.5 0 4.2 0.8 6.3 3.1 3 3.2 3.3 4.9 1 5.7 -0.8 0.3 -1.2 -0.4 -0.9 -1.9z"/>
  <path d="M471.3 226.3 c-0.7 -0.2 -1.3 -1.8 -1.3 -3.5 0 -2.5 0.3 -2.9 2.3 -2.6 1.7 0.2 2.3 1.1 2.5 3.6 0.3 3.2 -0.5 3.8 -3.5 2.5z"/>
  <path d="M36.1 200.8 c0 -7.9 0.2 -8.5 3.5 -13 3.2 -4.5 3.7 -4.8 8 -4.8 l4.6 0 -0.5 4.3 c-0.7 7 -4 14.2 -6.5 14.5 -1.8 0.3 -2.2 1 -2.2 3.8 0 3.2 -0.2 3.4 -3.4 3.4 l-3.5 0 0 -8.2z"/>
  <path d="M457.2 166.8 c-1.5 -1.5 -1.5 -4.5 0 -5.4 1.3 -0.8 3.8 2.2 3.8 4.8 0 2.1 -2 2.4 -3.8 0.6z"/>
  <path d="M468.5 164.1 c-0.8 -1.7 -3.3 -4.5 -5.5 -6.2 -2.6 -2.1 -4 -4 -4 -5.6 0 -3.2 2.9 -3 8.4 0.8 4.4 2.9 4.6 3.2 4.6 7.9 0 5.9 -1.4 7.1 -3.5 3.1z m-3.5 -10.6 c0 -0.8 -0.9 -1.5 -2 -1.5 -2 0 -2.6 1.1 -1.3 2.3 1.2 1.3 3.3 0.7 3.3 -0.8z"/>
  <path d="M97.6 107.4 c-1.6 -4.3 -0.6 -8.3 3.3 -12.3 3.5 -3.6 4.5 -4.1 8.5 -4.1 l4.6 0 0 5 c0 4.3 -0.5 5.5 -3.6 9 -3.2 3.5 -4.2 4 -7.9 4 -3 0 -4.5 -0.5 -4.9 -1.6z"/>
  <path d="M418 59 c-2.5 -0.4 -3.5 -0.8 -2.3 -0.8 3.3 -0.3 3.8 -2.1 0.9 -3.2 -3.8 -1.4 -3.2 -1.8 1.4 -1 3.6 0.7 6.9 3.1 7 5.3 0 0.8 -0.2 0.8 -7 -0.3z"/>
  <path d="M394.7 36.4 c-0.4 -0.4 -0.7 -1.6 -0.7 -2.6 0 -1.5 0.6 -1.9 2.8 -1.6 1.9 0.2 2.7 0.9 2.7 2.3 0 2 -3.3 3.3 -4.8 1.9z"/>
 </g>
 <g fill="#79abdc">
  <path d="M18.3 347.9 c-0.5 -0.5 -2.5 -1.8 -4.4 -2.7 -5.5 -2.8 -9.1 -10.5 -9.7 -21.3 -0.6 -10.4 1.1 -16 6.5 -22 3.5 -3.9 12.1 -9.9 14.1 -9.9 3.4 0 10.1 20.7 10.4 32 0.2 11.5 -6.9 25 -13.1 25 -1.5 0 -3.2 -0.5 -3.8 -1.1z m7.3 -9.4 c1.9 -1.9 2.4 -3.4 2.2 -5.8 -0.4 -4.7 -3.5 -4.2 -7.2 1 -2.4 3.5 -2.7 4.5 -1.6 5.8 1.8 2.2 3.7 1.9 6.6 -1z m-7.9 -6.1 c0.8 -2.1 -1.3 -4.2 -2.8 -2.7 -1.3 1.3 -0.5 4.3 1.1 4.3 0.6 0 1.3 -0.7 1.7 -1.6z"/>
  <path d="M20.7 336.3 c1.5 -4.3 5.3 -6 5.3 -2.5 0 2.3 -1.9 4.2 -4.2 4.2 -1.2 0 -1.6 -0.5 -1.1 -1.7z"/>
  <path d="M44.8 330 c-1.2 -1.6 -2.9 -3 -3.8 -3 -1.4 0 -1.9 -1.8 -2.8 -9.8 -0.8 -6.7 -0.8 -11 -0.1 -13.4 1.4 -5.3 8.5 -15.4 12.5 -17.8 5.2 -3.3 7.7 -2.2 11.3 5.2 2.8 5.6 3.1 7 3.1 15.8 0 12.6 -1.8 18.9 -6.8 22.9 -5.1 4.3 -10.3 4.3 -13.4 0.1z m9.7 -6.4 c0 -1.4 -0.8 -1.9 -3.8 -2.1 -4 -0.2 -5.2 0.7 -4.3 3.1 0.9 2.4 8.1 1.5 8.1 -1z"/>
  <path d="M87.5 321.8 c-3.5 -2.8 -7.5 -11.2 -7.5 -16.1 0 -4.8 5.6 -19.4 8.5 -22.3 1.3 -1.2 4.1 -2.8 6.3 -3.4 3.4 -1.1 4.7 -1 8.6 0.5 3.7 1.4 4.7 2.4 5.7 5.2 3.7 11.2 -2.5 27.5 -13.3 35.3 -2.2 1.6 -4.4 3 -4.8 3 -0.4 0 -2 -1 -3.5 -2.2z m16.3 -26.5 c0.4 -2.9 -2.4 -9.3 -4.1 -9.3 -2.5 0 -2.8 3 -0.7 7.7 2 4.6 4.2 5.3 4.8 1.6z"/>
  <path d="M632.6 321.8 c-0.7 -1.3 -2.4 -7.3 -3.6 -13.5 -2.1 -10.2 -2.2 -11.8 -1 -19 0.7 -4.2 1.6 -8.8 2.1 -10.1 1.3 -3.4 4.8 -2.5 8.1 2.3 8.9 12.7 9.1 31.3 0.4 40 -3.1 3.1 -4.2 3.1 -6 0.3z m2.1 -20.5 c-0.3 -1 -0.5 -0.2 -0.5 1.7 0 1.9 0.2 2.7 0.5 1.8 0.2 -1 0.2 -2.6 0 -3.5z m2.2 -6.9 c0.3 -0.3 -0.3 -1.2 -1.2 -2.2 -1.6 -1.5 -1.9 -1.5 -2.7 -0.2 -1.7 2.7 -1.2 4.2 1.3 3.4 1.2 -0.3 2.4 -0.8 2.6 -1z"/>
  <path d="M197.1 311.5 c-7.6 -4.1 -11.3 -7.4 -14.6 -13.1 -3.7 -6.3 -3.3 -9.3 1.9 -15.1 8.9 -9.9 20.8 -13.4 33.2 -9.8 7.3 2.1 8.9 3.5 10.8 9.4 3.5 11.2 2.9 15.3 -3.5 22.6 -8.9 10.1 -16.9 11.9 -27.8 6z m24.6 -24.2 c0.2 -0.6 -0.5 -2.1 -1.7 -3.3 -1.1 -1.1 -1.8 -2.5 -1.5 -3 0.4 -0.6 -0.6 -1.5 -2.1 -2 -4.5 -1.8 -5 0.3 -1.3 5.4 3.2 4.3 5.8 5.5 6.6 2.9z"/>
  <path d="M607.5 308.5 c-5.1 -6.6 -7 -18.1 -4.1 -24.9 2.7 -6.5 7.6 -5.4 11.7 2.6 2.3 4.6 2.7 21.2 0.5 24.1 -2.1 2.7 -5.2 2 -8.1 -1.8z m1.7 -8.7 c-0.5 -0.7 -1.2 -2.2 -1.4 -3.3 -0.5 -1.8 -0.6 -1.8 -1.3 -0.2 -1 2.3 0.1 4.7 2.1 4.7 1.2 0 1.4 -0.3 0.6 -1.2z"/>
  <path d="M272.5 310.1 c-7.1 -1.8 -12.9 -6.6 -16.3 -13.8 -1.4 -2.9 -1.4 -3.6 0.3 -8 3.2 -8.5 11 -14.3 19.4 -14.3 5 0 10.8 3.8 13.2 8.7 1.8 3.8 2.1 5.6 1.6 11.6 -0.7 8.1 -2.4 11.1 -8.3 14.4 -4.1 2.4 -5.1 2.5 -9.9 1.4z m10.5 -12 c0 -2.7 -1.9 -3.6 -3.7 -1.8 -1.8 1.8 -0.9 3.7 1.8 3.7 1.2 0 1.9 -0.7 1.9 -1.9z"/>
  <path d="M139.5 305.8 c-6.6 -3.6 -8 -7.8 -4.6 -13.4 2.6 -4.3 6.9 -5.8 12.8 -4.8 4.5 0.9 4.9 1.2 6.2 5.2 1.8 5.9 0.9 8.7 -4.2 11.7 -4.8 2.7 -7.1 3 -10.2 1.3z m2.9 -4.7 c0.3 -0.5 -0.1 -1.2 -1 -1.5 -2 -0.8 -2.9 -0.1 -1.9 1.3 0.8 1.3 2.2 1.4 2.9 0.2z"/>
  <path d="M31.2 258.5 c-1.9 -4.1 -1.4 -5.9 2.3 -9.5 3 -2.9 3.7 -3.2 4.5 -2 1.6 2.5 1.1 7.3 -1 10.8 -2.4 3.9 -4.3 4.1 -5.8 0.7z"/>
  <path d="M36.7 211.2 c-0.9 -0.9 -2.1 -3.9 -2.8 -6.5 -1.2 -4.2 -1.1 -5.1 0.8 -8.9 4.1 -8.5 11 -16.6 16.2 -19.3 2.8 -1.4 5.7 -2.5 6.6 -2.5 3.5 0 0.6 19 -4.1 26.7 -3.2 5.1 -10.8 12.3 -13 12.3 -1.1 0 -2.8 -0.8 -3.7 -1.8z m8.4 -14.9 c0.6 -1.6 1.8 -4.3 2.5 -6.2 0.8 -1.8 1.2 -3.6 0.9 -3.9 -0.9 -0.9 -5.5 1.7 -6.2 3.5 -0.4 1 -1.2 2.2 -2 2.6 -1.4 0.8 -1.8 4.9 -0.6 6 1.6 1.6 4.4 0.5 5.4 -2z"/>
  <path d="M41.6 196.1 c-0.4 -0.6 -0.1 -2.1 0.6 -3.3 l1.3 -2.3 0.3 2.4 c0.4 2.6 -1.2 4.9 -2.2 3.2z"/>
  <path d="M67 150.1 c0 -1.1 1.1 -3.3 2.5 -4.8 2.3 -2.7 2.4 -2.7 2.5 -0.6 0 3.4 -1.8 7.3 -3.5 7.3 -0.8 0 -1.5 -0.9 -1.5 -1.9z"/>
  <path d="M90.3 116.5 c-0.9 -2.6 0.3 -9 3 -14.9 3 -6.5 9.5 -13.2 16.1 -16.5 5.1 -2.5 12 -3.9 12.9 -2.5 0.2 0.5 -1.2 4.5 -3.2 8.9 -4.3 9.1 -11.4 17.5 -19.5 22.9 -5.9 3.9 -8.3 4.4 -9.3 2.1z m16.5 -13.2 c3.8 -3.3 5.6 -9.3 2.7 -9.3 -0.9 0 -3.4 1.8 -5.6 4.1 -4.3 4.5 -4.1 4.1 -3.3 6.3 0.9 2.3 2.5 2 6.2 -1.1z"/>
  <path d="M103 102.6 c0 -0.8 0.7 -1.6 1.5 -2 1.7 -0.6 1.8 -0.4 0.9 1.8 -0.8 2 -2.4 2.1 -2.4 0.2z"/>
  <path d="M162.5 52.8 c2 -6.8 9.4 -15.3 11 -12.8 0.8 1.3 6.5 1.3 6.5 0 0 -0.5 -0.7 -1 -1.5 -1 -1.9 0 -1.9 -1.4 0 -3.4 2 -1.9 10.7 -4.6 15.1 -4.6 7.3 0 4.8 2.5 -13.7 13.3 -5.3 3.1 -11 6.8 -12.7 8.2 -3.8 3.2 -5.6 3.3 -4.7 0.3z"/>
 </g>
 <g fill="#d0cd90">
  <path d="M288.8 619.9 c-10.5 -1.1 -36 -5.6 -42.8 -7.5 -5.5 -1.6 -13.3 -4.8 -30.5 -12.7 -5.1 -2.4 -12.9 -7.2 -18.1 -11.2 -5 -3.8 -14.7 -11 -21.5 -16 -12.7 -9.2 -42 -37.5 -62.9 -60.5 -13.5 -14.9 -15.6 -17.7 -26.2 -34.5 -14.2 -22.6 -26.5 -47.9 -34.2 -70.1 -8.1 -23.5 -13.8 -43.7 -13.4 -47.7 0.4 -3.6 0.9 -3.8 16.3 -6.2 15.3 -2.3 45.1 -8.2 56.5 -11.1 5.2 -1.3 16.5 -3.3 25 -4.4 8.5 -1.1 19.1 -2.5 23.5 -3.1 4.4 -0.5 18.3 -1.4 30.8 -1.9 12.6 -0.5 26.3 -1.4 30.5 -2.1 4.3 -0.6 10 -0.9 12.7 -0.5 2.8 0.3 11.3 -0.1 19 -0.9 7.7 -0.8 16.5 -1.5 19.5 -1.5 3 0 9.6 -0.7 14.5 -1.6 7.4 -1.3 12.2 -1.5 27.5 -0.8 24.7 1.1 36.5 1 68 -0.5 27 -1.3 48.3 -0.9 50.6 1 3.2 2.6 2.4 40.2 -1.1 50.1 -2 5.7 -2.5 6 -9 6.9 -14.4 2 -15.6 2.2 -16.5 3.9 -1.2 2.2 14.8 39.7 21.4 50.3 2.5 3.9 5.5 9.7 6.6 12.7 3.1 7.8 12.9 22.2 16.3 23.8 2.5 1.2 3.4 1.1 8.1 -1.2 4.5 -2.2 6.1 -3.9 11.9 -12.4 3.6 -5.4 10.3 -14 14.8 -19 7 -7.9 9.4 -9.8 16.2 -13.2 4.4 -2.2 8.8 -4 9.8 -4 3.3 0 6.7 -2.2 8 -5.2 2.8 -6.8 -4.5 -17.1 -15.8 -22.6 -7.5 -3.5 -7.8 -5.5 -2.7 -15.9 3.6 -7.2 3.8 -8 3.6 -16.7 -0.1 -5 0.4 -10.9 1 -13.1 0.6 -2.2 1.1 -7.6 1.2 -12 l0.1 -8 6.5 0.2 c8.5 0.2 30.2 1.9 46.5 3.7 7.2 0.8 15.7 1.7 19 2.1 8 0.8 32.2 4.4 36 5.4 3 0.7 3 0.7 2.7 7.1 -0.3 4.6 -1.5 9.3 -4.2 16.1 -2.1 5.2 -4.8 13.5 -5.9 18.3 -1.2 4.8 -3.9 13.4 -6.1 19.1 -2.3 5.6 -4.9 13.4 -6 17.2 -5.4 19.4 -25.2 61.2 -35.7 75.3 -3 4.1 -7.6 10.7 -10.1 14.5 -4.4 6.8 -22.6 27.9 -32.7 37.9 -8.5 8.4 -35 25 -57.5 35.9 -29.5 14.3 -66.3 29.4 -74 30.3 -2.5 0.3 -10.1 1.6 -17 2.9 -20.6 3.9 -60.2 5.5 -80.2 3.4z m86.6 -13.9 c0.5 -0.5 0.7 -1.2 0.4 -1.5 -0.3 -0.3 -7 -0.7 -14.8 -0.8 -10.7 -0.1 -14.4 0.1 -14.7 1.1 -0.3 0.8 1 1.2 4.4 1.3 2.6 0.1 6.2 0.5 7.8 1 3.8 1 15.5 0.3 16.9 -1.1z m32.1 -7.1 c3.6 -1 3.8 -1.2 2.1 -2.5 -2.8 -2 -8.6 -2.5 -23.9 -2.2 -13.8 0.3 -16.6 1.1 -11.6 3.5 6.6 3.2 23.7 3.8 33.4 1.2z m27 -11.9 c0.3 -0.5 -0.7 -1.2 -2.2 -1.5 -3.4 -0.6 -10.1 -2.3 -16.8 -4.1 -5.4 -1.5 -8.1 -0.5 -5.5 2 3.6 3.4 22.8 6.3 24.5 3.6z m12.9 -11.6 c3.2 -1.2 1.5 -2.4 -3.4 -2.4 -2.7 0 -8.4 -1.1 -12.7 -2.5 -9.1 -2.9 -12.1 -3.2 -10.4 -1.1 0.7 0.8 4.2 2.1 7.9 3.1 3.7 0.9 7.4 2 8.2 2.5 1.7 1.1 8 1.3 10.4 0.4z m13.5 -10.4 c-5.2 -3 -23.9 -5.4 -23.9 -3.1 0 1.3 3.3 2.3 10.5 3.1 9.4 1.1 15.3 1.1 13.4 0z m17.1 -10.9 c0 -0.5 -0.8 -1.2 -1.7 -1.5 -3.7 -1.2 -31.7 -6.6 -34 -6.6 -3.9 0 -2.4 3.1 2.2 4.7 9.1 3 33.5 5.5 33.5 3.4z m11.1 -12.5 c0 -0.6 -11.5 -3.3 -25.5 -6.1 -24.3 -4.9 -29.6 -5.3 -29.6 -2.6 0 2.4 5.2 3.9 16.5 5 6.6 0.6 17 2 23 3 11.6 2.1 15.6 2.2 15.6 0.7z m9.4 -15.5 c0.8 -1.3 -4.7 -2.9 -13.7 -4.1 -4.3 -0.5 -10.8 -1.7 -14.5 -2.5 -6.8 -1.6 -11.3 -1.4 -11.3 0.6 0 2.1 7.3 3.9 21.6 5.2 8.2 0.8 15.4 1.5 16.1 1.6 0.6 0 1.4 -0.3 1.8 -0.8z m23.5 -12.1 c1.6 0 2.1 -0.3 1.4 -1 -1.5 -1.5 -45 -8.5 -51.2 -8.3 -4.6 0.2 -7.2 1.3 -7.2 3.2 0 2.6 1.5 3 15.9 4.2 6.9 0.6 16.2 1.4 20.6 1.9 4.4 0.5 10.3 0.7 13 0.4 2.8 -0.2 6.1 -0.4 7.5 -0.4z m3.9 -15.5 c-9.7 -3.5 -44.2 -7.9 -46.2 -5.8 -1.7 1.6 1.9 3.3 7.2 3.4 3.1 0 11 0.8 17.6 1.8 6.6 1 14.9 1.9 18.5 1.9 l6.5 0.1 -3.6 -1.4z m21.5 -13.4 c3.1 -1.2 -5.5 -3 -19.2 -4.1 -6.4 -0.5 -18.7 -2.5 -27.2 -4.5 -17.2 -3.9 -22.7 -4.3 -23.7 -1.9 -0.3 0.8 -0.2 1.9 0.3 2.4 0.8 0.8 16.3 4.1 34.9 7.4 8.6 1.5 31.7 2 34.9 0.7z m13.6 -13.4 c0 -2.6 -4.1 -3.7 -14 -3.8 -5.5 0 -10.4 0.2 -10.9 0.5 -0.5 0.4 -4.9 0 -9.6 -0.8 -4.8 -0.7 -9.6 -1.1 -10.6 -0.9 -2.1 0.6 -2.5 2.8 -0.7 3.9 2.1 1.3 12.9 2.1 29.6 2.3 12.4 0.1 16.2 -0.2 16.2 -1.2z m4 -14.6 c0 -1.2 -1.8 -1.8 -7.6 -2.6 -2.7 -0.4 -10 -2 -16.2 -3.6 -12.7 -3.3 -16.4 -3.5 -18.1 -1.5 -1.8 2.2 1.1 3.3 11.5 4.6 4.9 0.6 11.6 1.7 14.9 2.5 7.1 1.5 15.5 1.9 15.5 0.6z m-472.9 -11.6 c1.6 -0.9 2.7 -2 2.4 -2.5 -0.9 -1.5 -5.8 -1.2 -8.3 0.6 -4.5 3.1 0.4 4.7 5.9 1.9z m475.2 -6.5 c-3.4 -1.4 -28.2 -6 -32 -6 -2.2 0 -3.3 0.5 -3.3 1.4 0 1.7 2 2.2 15 3.7 5.2 0.6 9.7 1.3 9.9 1.5 0.2 0.2 3.2 0.4 6.5 0.3 4.7 0 5.6 -0.2 3.9 -0.9z m-480.5 -6.8 c3.5 -0.9 6.3 -2.1 6.3 -2.7 -0.1 -0.6 -3.5 -1 -8.2 -1 -6.8 0 -8.4 0.3 -9.3 1.8 -0.8 1.4 -0.8 2 0.4 2.7 2 1.3 3.3 1.2 10.8 -0.8z m490.7 -7.1 l4 -0.8 -4 -1.1 c-2.2 -0.6 -6 -1.4 -8.5 -1.7 -2.5 -0.4 -8.9 -1.5 -14.3 -2.7 -9.7 -2 -15.2 -1.8 -14.4 0.5 0.4 1.3 12.5 4.3 22.7 5.6 8.5 1.1 9.8 1.1 14.5 0.2z m-491.6 -6.4 c10.3 -1.9 9.1 -3.7 -2.6 -3.7 -10.3 0 -13 0.8 -12 3.4 0.8 1.9 5.4 2 14.6 0.3z m499.6 -5.6 c-1.3 -1.1 -18.8 -6.5 -29.8 -9.1 -10.2 -2.4 -17.2 -2.9 -18.9 -1.2 -2.1 2.1 0.6 3.4 10.9 5.3 5.4 1 13.9 2.7 18.8 3.8 9.4 2 20.6 2.8 19 1.2z m-500.5 -9.1 c11.5 -1.3 19.6 -3.2 19.3 -4.6 -0.2 -0.5 -5.6 -1 -12 -1.2 -13.6 -0.3 -25.1 1.5 -26.7 4.1 -1.5 2.4 0.9 3.9 5.4 3.3 1.9 -0.2 8.2 -0.9 14 -1.6z m500.5 -5.9 c-1.3 -1.1 -8.6 -2.8 -16 -3.6 -8.4 -1 -5.9 1.4 3.2 3 8.3 1.5 14 1.8 12.8 0.6z m-508.1 -6.2 c29.5 -3.7 74.3 -12.4 77.1 -15 1.2 -1.2 -5.3 -1.2 -13 0.1 -3.3 0.5 -11.6 1.6 -18.5 2.5 -6.9 0.9 -16.3 2.2 -21 3 -4.7 0.8 -14.8 2.1 -22.5 3 -14.2 1.6 -17.4 2.8 -16.2 5.9 0.8 1.9 2.2 1.9 14.1 0.5z m520.6 -8.8 c0 -1.3 -2.6 -2.1 -6.6 -2.1 -1.9 0 -6.9 -0.9 -11.2 -2 -10.2 -2.5 -21.7 -3.1 -21.7 -1 0 1 1.6 1.8 5 2.3 2.8 0.5 7.9 1.5 11.5 2.2 7.7 1.5 23 1.9 23 0.6z m-526.2 -8 c10.1 -2.6 21.7 -4.7 37.9 -7.1 7.3 -1 14.5 -2.6 16 -3.5 2.7 -1.5 2.4 -1.6 -6.2 -1 -11.1 0.6 -20.7 1.9 -39.5 5.2 -8 1.4 -16.3 2.8 -18.5 3.2 -3.1 0.5 -4.1 1.1 -4.3 2.9 -0.3 1.9 0.1 2.2 3.3 2.2 2 0 7.1 -0.9 11.3 -1.9z m525.2 -5.2 c0.9 -0.5 -0.7 -0.9 -4.5 -0.9 -6.6 0 -21.1 -2.2 -29.2 -4.4 -5.2 -1.4 -7.5 -0.8 -5 1.2 1.9 1.6 9.2 3.2 21.2 4.6 10.7 1.3 14.5 1.2 17.5 -0.5z m-235.6 -2.8 c1.3 -2.1 -13.7 -3.8 -17.9 -2.2 -1.5 0.6 -0.5 1 4 1.5 3.3 0.4 6.7 0.9 7.5 1 3.1 0.7 5.9 0.6 6.4 -0.3z m-299.4 -3.1 c1.9 -0.6 7.2 -1.5 11.8 -2 8.6 -1.1 19.2 -4.4 19.2 -6.1 0 -1.4 -10.4 -1.1 -15.2 0.5 -2.4 0.8 -8.7 2.2 -14.1 3.1 -9.6 1.7 -11.4 2.5 -10.2 4.5 0.8 1.3 4.1 1.3 8.5 0z m543 -8 c0 -1.2 -3.5 -3.1 -8 -4.2 -1.9 -0.5 -10 -1.3 -18 -1.7 -8 -0.5 -18.9 -1.5 -24.2 -2.2 -7.6 -1 -10.1 -1 -11 -0.1 -2.3 2.3 1 3.5 14.4 4.9 7.3 0.8 17.8 2 23.3 2.7 12.3 1.6 23.5 1.9 23.5 0.6z m-259 -5.6 c26.1 -1.2 40 -2.9 40 -4.7 0 -1.8 -4 -1.9 -18.9 -0.8 -8.6 0.7 -24.7 1.6 -35.9 2 -11.2 0.4 -20.7 1.2 -21.3 1.8 -1.8 1.8 3.8 4.7 7.1 3.6 0.8 -0.3 13.9 -1.1 29 -1.9z m262 -2.4 c1.3 -0.8 1.3 -0.9 0 -1.3 -2 -0.6 -9.8 -2.1 -25 -4.7 -6.9 -1.2 -17 -3 -22.5 -4.1 -15.1 -2.9 -22.7 -2.4 -21.2 1.5 0.7 1.7 2.6 2.1 10 1.7 4.9 -0.3 14.5 1.1 36.2 5.4 12.9 2.5 20.1 3 22.5 1.5z m-229.6 -11.4 c18.1 -2.9 13.7 -3.6 -18.7 -2.9 -23.4 0.5 -33 0.3 -41.4 -0.8 -14.7 -1.9 -45.4 -1.9 -47.7 0 -3.5 2.9 0 3.6 20.2 3.7 10.8 0.1 24.7 0.6 30.7 1 17 1.4 45.6 0.9 56.9 -1z"/>
  <path d="M44.5 273 c-0.5 -0.9 0.1 -4.6 5.7 -33 2.7 -14.1 3.3 -15.8 16 -44 14.5 -32.3 25.6 -52.8 38.3 -70.5 4 -5.5 8 -11.6 9 -13.5 1 -1.9 4 -6 6.6 -9 6.2 -7.1 31.9 -30.9 38.4 -35.6 7.4 -5.2 29.8 -18.6 39.2 -23.3 4.5 -2.2 11.9 -6.5 16.5 -9.5 15.7 -10.1 22 -12.5 42.5 -16.2 23.2 -4.1 32.3 -4.9 40.5 -3.5 23.2 4.1 33.1 8.3 46.2 19.9 16.9 14.9 31.2 33.6 37.6 48.8 1.8 4.3 6.5 15.1 10.5 23.9 8.7 19.3 12 27.9 13.9 36.5 0.9 3.6 2.5 9.2 3.6 12.5 3.9 11.1 8.9 30.3 10 37.7 2.1 14.4 4.3 25.4 6.6 33.3 1.3 4.4 2.7 10.3 3 13.1 0.6 4.8 0.5 5.2 -1.7 5.7 -1.3 0.3 -17.2 0.6 -35.4 0.6 -18.1 0 -34.6 0 -36.5 0.1 -8.4 0.2 -75.9 1 -112.5 1.3 -24.8 0.2 -43 0.8 -48 1.5 -4.4 0.7 -11.8 1.7 -16.5 2.2 -22.8 2.6 -59 8.4 -87.5 14 -18.7 3.7 -42.6 8 -44.5 8 -0.5 0 -1.2 -0.4 -1.5 -1z m19.5 -14 c5.1 -2.7 32.1 -7.4 48 -8.2 2.5 -0.2 4.4 -0.7 4.3 -1.3 -0.5 -3.2 -27.3 -2.8 -44.1 0.5 -19.5 3.9 -24.9 6.5 -20.5 9.8 1.9 1.4 9.2 0.9 12.3 -0.8z m6.5 -13.4 c4.7 -1.3 35.3 -5.6 39.9 -5.6 0.6 0 0.5 -0.5 -0.1 -1.1 -0.6 -0.6 -6 -1.5 -11.9 -2 -8.6 -0.6 -11.9 -0.5 -15.9 0.6 -2.8 0.9 -8 1.4 -11.6 1.3 -5.3 -0.1 -7.3 0.3 -10.2 2.1 -4 2.5 -4.7 4.4 -1.9 6.1 1.9 1.1 2.9 1 11.7 -1.4z m309.3 -1.6 c5.1 -1.1 10.2 -2.4 11.3 -3.1 3.6 -1.9 0.7 -2.9 -5.1 -1.9 -10.5 2 -19.1 2.3 -28.1 1 -14.5 -1.9 -25.9 -1.3 -25.9 1.5 0 2 1.8 2.3 10 1.8 4.7 -0.2 10 0.1 14 1.1 8.8 2 12.9 1.9 23.8 -0.4z m-304.2 -10.4 c9 -3 19.6 -4.8 29.7 -5 9.4 -0.1 11.6 -2 3.5 -2.9 -8.2 -1 -21.4 -0.8 -26.6 0.4 -7.6 1.8 -20.1 6 -20.7 7 -2.2 3.5 4.6 3.8 14.1 0.5z m297.8 -0.2 c1.8 -0.7 1.8 -0.8 0 -2.1 -1.2 -0.9 -5.1 -1.3 -12.5 -1.3 -11.2 0 -13.9 1 -10.3 3.7 1.5 1.2 4.1 1.4 11.4 1 5.2 -0.3 10.4 -0.9 11.4 -1.3z m-299.1 -7.9 c2.3 -1.3 8.4 -3.5 13.6 -4.9 5.1 -1.4 9.6 -2.8 9.9 -3.1 0.3 -0.3 -2.7 -0.5 -6.7 -0.5 -5.8 0 -8.3 0.6 -13.4 2.9 -7.7 3.5 -10.2 5.5 -9.3 6.9 1 1.6 1.1 1.6 5.9 -1.3z m290.1 1.9 c2.4 -0.9 1.9 -3.3 -0.8 -4 -5.9 -1.4 -11.4 1.5 -6.4 3.5 2.8 1.2 5.1 1.3 7.2 0.5z m-253.1 -12.5 c5.4 -1.4 3.7 -2.8 -2 -1.8 -6.2 1.2 -7.3 1.6 -7.3 2.9 0 1 1.2 0.9 9.3 -1.1z m-35.1 -5.8 c5.9 -2.5 21.2 -6.7 27.3 -7.5 12 -1.5 17.5 -2.8 17.5 -4.2 0 -1.6 -5.6 -1.8 -22.1 -0.5 -15.5 1.2 -31.9 6.9 -31.9 11 0 3.7 2.7 4 9.2 1.2z m40.2 -20.5 c12.5 -0.8 14.9 -1.3 14 -2.7 -0.9 -1.5 -27.9 -1 -38.3 0.7 -11.2 1.8 -14.7 3 -15.6 5.2 -1.1 2.9 1.6 2.9 14.8 0.2 7.3 -1.5 18.5 -3 25.1 -3.4z m-12.9 -9.4 c5 -1.2 13.9 -2.6 20 -3.2 11.9 -1.2 20.8 -4.1 18.7 -6.2 -0.8 -0.8 -2.5 -0.9 -6.4 0 -2.9 0.6 -9.4 1.4 -14.3 1.7 -14.7 0.9 -33.5 6.1 -33.5 9.2 0 1.8 2 1.6 15.5 -1.5z m15.1 -15.3 c3.2 -0.6 9.3 -1.4 13.4 -1.8 6.8 -0.6 7.3 -0.8 5.2 -1.9 -1.9 -1.1 -4.9 -1.1 -15.9 -0.1 -7.4 0.6 -16.2 0.8 -19.4 0.5 -5 -0.6 -6 -0.4 -6.6 0.9 -0.3 1 0 2.1 0.8 2.6 2 1.2 15.4 1.1 22.5 -0.2z m-12.6 -10.4 c4.1 -2.1 13.8 -4.2 25.5 -5.5 13.3 -1.4 16.5 -2 16.5 -3.3 0 -1.7 -26.4 -0.1 -35 2.2 -12.9 3.4 -14.4 4.3 -11.8 6.9 1.5 1.5 1.3 1.5 4.8 -0.3z m16.5 -16.9 c3.9 -0.8 13.3 -2.2 21 -3 7.7 -0.9 16.4 -1.8 19.2 -2.2 7.3 -0.8 7.7 -2.4 0.6 -2.6 -16.8 -0.5 -40.7 2.1 -49.5 5.4 -3.8 1.4 -3.7 5.5 0.1 4.3 0.9 -0.2 4.8 -1.1 8.6 -1.9z m11.5 -15.2 c13.1 -3.7 23.4 -5.5 36.3 -6.1 7.6 -0.3 13.4 -1 13 -1.4 -1.2 -1.2 -13 -2.9 -20.4 -2.9 -4.5 0 -9.7 1 -16.5 3 -6.5 2 -12.8 3.2 -18.3 3.5 -8.7 0.4 -10.8 1.3 -9.8 3.9 0.8 2.1 8.5 2.1 15.7 0z m18.5 -16.9 c3.9 -0.8 12.9 -1.7 20 -2 28.5 -1.2 33 -2.2 19.5 -4.4 -8.1 -1.3 -18.4 -1.4 -24.7 -0.2 -2.6 0.5 -10.6 1.5 -17.8 2.2 -13.6 1.3 -16.4 2.1 -14.4 4.5 1.5 1.8 8.6 1.8 17.4 -0.1z m8.3 -14.4 c4.3 -1 10.9 -2.2 14.7 -2.5 10 -0.9 13.5 -1.7 13.5 -2.9 0 -1.6 -26.2 -0.1 -30.6 1.8 -2 0.8 -5.2 1.5 -7 1.5 -3.9 0 -4.5 1.6 -1.1 3 1.2 0.5 2.4 0.9 2.5 0.9 0.2 0.1 3.8 -0.8 8 -1.8z m11.1 -14.1 c4.8 -1.3 10.7 -2 16.5 -2 5 0 12.5 -0.4 16.6 -1 4.1 -0.5 9.7 -1.3 12.5 -1.6 4.1 -0.5 4.6 -0.8 3 -1.6 -1.2 -0.7 -5.7 -0.8 -12.9 -0.4 -6.1 0.4 -17.2 1.1 -24.6 1.6 -17 1 -23.5 2.8 -21.5 6 0.8 1.4 1.8 1.3 10.4 -1z m26.7 -17.6 c4.4 -0.8 13 -1.4 19 -1.5 6 0 12.7 -0.3 14.9 -0.8 3.9 -0.7 4 -0.7 1.6 -2 -4.3 -2.4 -25 -2.4 -38.6 0 -12.1 2.1 -15.5 3.2 -15.5 4.9 0 2 4.4 1.9 18.6 -0.6z m24.1 -12.5 c12.6 -1.7 11.5 -3.5 -1.7 -3 -4.1 0.2 -9 2 -9 3.2 0 1.1 1.2 1.1 10.7 -0.2z"/>
  <path d="M584 251.3 c-3 -0.2 -10 -1 -15.5 -1.9 -5.5 -0.8 -21.4 -1.9 -35.3 -2.4 -14 -0.4 -25.8 -1.2 -26.3 -1.7 -0.5 -0.5 -2 -7.2 -3.4 -14.8 -4.4 -23.9 -8.4 -42.7 -10.9 -51.1 -1.9 -6.3 -2.3 -9.5 -1.9 -14.2 0.8 -8.9 -0.2 -12.5 -5.9 -20 -3.7 -4.8 -5.8 -8.9 -7.5 -14.7 -3.6 -11.8 -19.1 -42.7 -25.7 -51.3 -3.6 -4.8 -5.6 -8.3 -5.6 -10.1 0 -3.4 -4.6 -10.8 -9.2 -14.7 -3.8 -3.2 -13.4 -17.4 -11.7 -17.4 4.7 0 32.7 19.2 56 38.5 5.3 4.4 14.3 11.6 20 16 14.6 11.3 31.9 28.8 44 44.5 11.5 14.9 23.3 32 22.5 32.7 -0.2 0.3 -2.8 0 -5.6 -0.6 -6.1 -1.3 -16 -1.5 -16 -0.2 0 1.9 9.6 4.6 16.5 4.6 l7 0 6.2 12 c6.5 12.7 14.5 31.4 13.8 32.5 -0.3 0.4 -2.8 0.3 -5.7 -0.2 -8.2 -1.3 -33.8 -1.2 -37.3 0.2 -2.9 1.1 -2.9 1.2 -1.1 2.6 1.4 1 3.8 1.2 8.5 0.9 3.6 -0.2 13.5 -0.7 21.9 -1 l15.3 -0.5 1.5 3.7 c0.9 2.1 3.6 8.2 6 13.6 2.5 5.4 4.7 11.1 5.1 12.7 l0.6 3 -7.4 -0.2 c-4.1 -0.1 -9.9 -0.3 -12.9 -0.5z m12 -4.3 l2.5 -0.7 -2.5 -0.6 c-1.4 -0.4 -5.4 -0.8 -9 -1.1 -3.6 -0.2 -9.2 -1 -12.5 -1.9 -3.4 -0.8 -13.1 -1.7 -22.7 -2.1 -14.2 -0.5 -16.8 -0.4 -16.8 0.8 0 0.8 0.4 1.8 1 2.1 0.5 0.3 8.7 0.8 18.2 0.9 11.7 0.3 18.9 0.9 22.3 1.9 5.3 1.6 15.4 2 19.5 0.7z m1 -8.7 c1.1 -1 -2.9 -2.2 -10 -2.9 -8.1 -0.9 -36.8 -0.9 -37.6 -0.1 -1.2 1.2 6.9 3.1 16.1 3.7 9.6 0.7 30.5 0.3 31.5 -0.7z m-6 -10.9 c0 -0.6 -0.7 -1.5 -1.6 -1.8 -2.4 -0.9 -14 -0.7 -23.4 0.4 -7 0.9 -9.2 0.8 -12.9 -0.5 -4.7 -1.6 -15.7 -2 -18 -0.6 -2.9 1.9 0 3.2 5.7 2.6 3.2 -0.3 7.3 -0.1 9.2 0.4 5.5 1.4 41 1 41 -0.5z m-9.7 -18.9 c0.3 -1.2 -39.4 -2.6 -40.7 -1.4 -0.5 0.4 0.4 1.1 2 1.4 1.6 0.4 3.4 0.8 3.9 1 2.4 0.9 34.5 -0.1 34.8 -1z m-2.9 -7.4 c0.9 -1.4 -1.9 -2.1 -13.2 -3.2 -16.3 -1.7 -15.2 1.3 1.3 3.4 5.9 0.8 11.4 0.7 11.9 -0.2z m-13.4 -10.5 c-4.5 -1.6 -18.7 -2.9 -17.3 -1.5 1.3 1.3 8.8 2.7 15.3 2.7 l5.5 0.1 -3.5 -1.3z m0.8 -8.8 c-0.6 -1.6 -7.9 -3.5 -16.9 -4.4 -6 -0.6 -6.9 -0.4 -6.9 1 0 0.9 0.3 1.6 0.8 1.7 0.4 0 5 0.6 10.2 1.3 12.9 1.8 13.2 1.8 12.8 0.4z m-8.8 -21.8 c0 -1.6 -3.2 -2.7 -12.5 -4.3 -9.3 -1.6 -18.5 -1.1 -15.5 0.8 4.2 2.6 28 5.7 28 3.5z m-7 -9.9 c0 -1.3 -2.1 -1.9 -12.1 -3.6 -4.6 -0.7 -9.9 -1.7 -11.6 -2.1 -3.7 -0.7 -4.5 0.9 -1.3 2.6 5 2.7 25 5.1 25 3.1z m-11.2 -9.6 c2.3 -2.2 -14.4 -4.5 -22.2 -3.1 -4.3 0.8 -4.3 2.8 0 3.8 3.1 0.8 21.4 0.2 22.2 -0.7z m-2.9 -6.1 c0.9 -0.8 -1.3 -2.4 -4.7 -3.4 -4.6 -1.2 -16.2 -1.3 -16.2 -0.1 0 1.5 1.5 2.1 8.3 3.6 5.2 1.2 11.2 1.1 12.6 -0.1z m-9.9 -11.3 c0 -1.5 -2.9 -2.1 -10.5 -2.1 -6.8 0 -9.4 0.8 -7.8 2.4 1 1 18.3 0.7 18.3 -0.3z m-13.5 -8.7 c1.3 -0.5 1.4 -0.8 0.3 -1.5 -1.8 -1.2 -7.5 -1.1 -8.3 0 -0.9 1.5 5 2.6 8 1.5z m-4 -6.4 c1.8 -0.7 1.8 -0.9 -0.9 -1.9 -3.4 -1.4 -9.1 -1.1 -9.1 0.4 0 0.5 1.4 1.3 3 1.6 4.1 0.9 4.7 0.9 7 -0.1z m-8.7 -9.7 c-2.1 -2 -12.8 -3.2 -12.8 -1.4 0 1.7 3.9 3 9.5 3 4.6 0.1 4.8 0 3.3 -1.6z m-10.8 -11.1 c0 -1.4 -4.8 -3.2 -8.5 -3.2 -4 0 -4.5 1.2 -1.2 2.8 2.6 1.3 9.7 1.6 9.7 0.4z"/>
 </g>
</svg>