<svg width="50" height="50" xmlns="http://www.w3.org/2000/svg" class="page showed">

 <g>
  <title>background</title>
  <rect fill="none" id="canvas_background" height="52" width="52" y="-1" x="-1"/>
 </g>
 <g>
  <title>Layer 1</title>
  <g id="svg_1" transform="matrix(0.034066839717645056,0,0,0.034066839717645056,147.76621914784567,-427.91097210292025) ">
   <path id="svg_2" fill="#000000" stroke-width="18.49483" d="m-3621.93266,12784.41261c44.73083,-23.9746 95.22973,-36.31152 145.56567,-35.56152c23.50806,-0.29785 47.07068,2.98731 69.65381,9.6709c-35.75208,8.52344 -70.30676,22.95898 -101.27014,43.38379c-58.06311,38.2998 -102.37659,98.39258 -122.78308,166.44922c-13.35034,44.71679 -16.77832,92.23437 -12.62464,138.73633c3.08362,34.37402 11.0105,68.41211 24.2699,100.14062c18.91919,44.98242 47.9596,85.57227 84.72766,116.60156c31.68848,26.94141 69.09119,46.10938 108.32605,58.04883c5.35095,1.7832 10.86511,2.92969 16.19788,4.78906c-13.93054,3.54297 -27.93384,6.92579 -42.2638,8.23829c-39.27087,3.64453 -79.24939,-0.93555 -116.88794,-13.08399c-0.10876,27.16406 -0.05419,236.2793 -0.01806,263.44531c46.83496,-0.0957 93.65185,-0.04101 140.4685,-0.04101c-0.10864,23.63867 0.29029,47.3125 -0.19958,70.92969c-46.7804,-0.20704 -93.57898,-0.18946 -140.35962,-0.01758c0.12708,51.09961 0.01685,73.47265 0.0531,124.57226c-23.12744,-0.07422 -46.2727,0.14844 -69.40002,-0.11523c0.19946,-51.08203 0.07409,-73.4336 0.05615,-124.53711c-46.88953,0 -93.77881,-0.14844 -140.66821,0.08008c-0.25415,-23.63867 -0.03626,-47.27344 -0.10889,-70.89063c46.87121,0.01953 93.74255,-0.15039 140.61365,0.09375c0.43542,-38.10937 0.16345,-258.16797 0.12719,-296.27929c-36.27832,-22.35743 -68.7832,-51.3086 -95.17553,-85.4375c-20.60596,-26.81055 -37.94703,-56.50977 -49.41053,-88.70704c-12.08044,-33.66113 -18.03039,-69.61328 -17.59497,-105.50586c-0.23596,-31.84375 4.57093,-63.75683 14.20264,-94.00195c13.5498,-42.91699 37.54797,-81.83496 67.44092,-114.53906c28.15198,-30.60254 60.71142,-57.10938 97.06189,-76.46192z"/>
  </g>
 </g>
</svg>