<?xml version="1.0" encoding="UTF-8" standalone="no"?>
<!-- Created with Inkscape (http://www.inkscape.org/) -->
<svg xmlns:svg="http://www.w3.org/2000/svg" xmlns="http://www.w3.org/2000/svg" version="1.0" width="400" height="600" id="svg2">
  <defs id="defs5"/>
  <path d="M 188.79857,492.55018 L 180.09663,484.17671 L 188.57725,474.97463 C 212.44187,449.07984 230.37031,423.34927 246.04359,392.5 C 254.14781,376.5487 265.0005,350.78866 265.0005,347.50373 C 265.0005,346.53236 263.21255,347.40666 259.7505,350.07094 C 251.67361,356.28665 233.85001,364.64767 222.5005,367.54485 C 204.24051,372.20605 178.92084,371.97166 159.45635,366.96123 C 147.77122,363.95331 130.93184,355.3283 122.0005,347.77659 C 95.11018,325.04006 81.65749,291.36529 81.74139,247 C 81.78993,221.33674 85.91479,197.1747 94.55247,171.95714 C 111.06665,123.74428 136.98179,82.210848 180.29075,34.54693 L 185.6999,28.59386 L 189.6002,31.718323 C 191.74536,33.436777 195.9159,37.308373 198.86805,40.32187 L 204.23561,45.800955 L 193.66355,57.483549 C 168.69038,85.080007 151.53704,109.91644 136.8182,139.79028 C 130.67851,152.2516 118.91503,180.17836 119.52809,180.83739 C 119.70071,181.02295 122.91512,178.62979 126.67122,175.51926 C 144.84799,160.46658 171.06913,152.9127 200.0005,154.39429 C 227.96505,155.82638 249.78837,164.40176 267.15103,180.78081 C 291.49094,203.74185 302.41509,234.21538 302.36063,279 C 302.33536,299.77768 300.97355,312.12979 296.41891,332.89349 C 286.70405,377.18157 262.85893,424.36347 228.55502,467.17452 C 219.26505,478.76833 199.25099,501.02345 198.17004,500.96183 C 197.80179,500.94084 193.58463,497.15559 188.79857,492.55018 z M 212.92994,343.99452 C 242.28307,336.85605 266.31414,312.68729 273.9846,282.59004 C 276.76052,271.6979 276.75301,253.72727 273.96762,242 C 266.78666,211.76606 241.98871,187.12253 211.5005,179.92186 C 203.8953,178.12567 200.40831,177.86988 189.0005,178.27134 C 173.93019,178.80168 167.30498,180.26871 156.08925,185.55888 C 132.8924,196.50023 116.23621,216.81521 109.90648,241.88639 C 108.09535,249.06004 107.84969,252.38603 108.2077,264.88639 C 108.58615,278.10034 108.93262,280.39476 111.82513,288.842 C 113.58452,293.98009 116.23139,300.28009 117.70707,302.842 C 137.50495,337.21285 174.70639,353.29022 212.92994,343.99452 z" id="path2384" style="fill:#000000"/>
</svg>